<svg xmlns="http://www.w3.org/2000/svg" width="30" height="30" viewBox="0 0 30 30">
    <path d="M16.858 1.88c-.7 0-1.27.143-1.68.47-.391.295-.663.72-.812 1.242l-.006.017-.047.31-1.23 2.71h-1.676l-1.061.517-4.898 6.13.26 1.138 1.056.674 6.47-2.315 1.395 5.995-.277 1.709-3.432-3.842a1.935 1.935 0 0 0-.799-.563c-.299-.13-.6-.2-.896-.2-.612 0-1.134.244-1.457.708h-.002v.002a2.43 2.43 0 0 0-.432 1.385c0 .133.02.294.055.506l.002.01.002.011c.05.203.085.346.1.42l.001.01 1.329 4.82c-.467.232-.89.473-1.163.762-.322.342-.505.744-.505 1.17 0 .051.01.089.013.135L7 25.918l-2.32.414V28h2.591l1.19-.328c.392.195.823.328 1.324.328.104 0 .377-.008.854-.025h.01a21.51 21.51 0 0 0 1.758-.207l4.994-.733 3.425.965h2.594v-1.668l-2.316-.414-1.106-.773v-4.96l-.49-.048.283-3.758.801-3.082 1.238 3.76-.35 4.728-.411 1.108v2.34l1.636-.35v-.354l1.047-.332v-2.68l.928-4.533-1.836-6.254-.002-.007c-.085-.24-.187-.52-.307-.844-.155-.42-.544-.7-1.044-.816l-2.41-.586v-.663c.43-.593.79-1.122 1.054-1.568.313-.497.477-1.02.477-1.555a2.27 2.27 0 0 0-.553-1.51 3.333 3.333 0 0 0-1.389-.974 4.986 4.986 0 0 0-1.812-.326zm.025 1.052c.34 0 .73.063 1.17.193.426.126.788.32 1.098.582.286.243.412.513.412.883 0 .42-.127.842-.395 1.283v.002a19.43 19.43 0 0 1-.734 1.121l-.418-.369.217-.26.008-.013c.072-.11.152-.241.238-.395l.002-.004c.115-.194.191-.376.191-.574 0-.248-.103-.485-.267-.678a.907.907 0 0 0-.73-.371c-.16 0-.316.037-.458.107-.058.03-.108.07-.162.104l-1.578-.89c.1-.2.198-.397.387-.497l.002-.002a2.24 2.24 0 0 1 1.017-.222zm-1.807 1.623l2.094 1.181.15-.164c.149-.161.247-.195.307-.2.007.026.02.067.02.06 0-.026-.008.041-.065.14l-.004.008-.003.006a1.29 1.29 0 0 1-.147.23l-.004.006-.719 1.012 1.35 1.129v1.289l3.219.791c.154.044.258.135.353.352l.002.003.002.004a5.3 5.3 0 0 1 .266.678l1.717 5.826-.938 4.707v1.866l-.635.205v-.663l.405-1.058.468-4.951-1.896-5.42-1.006-.045-1.213 4.61-.318 4.029-3.162.705.37-2.168L14 11.389l-7 2.54-.369-.199-.023-.244c.14-.172.342-.417.664-.8l.002-.004v-.002c.357-.442.765-.943 1.224-1.504l1.405-1.711.002-.002c.446-.562.84-1.064 1.191-1.514l.576-.32h1.371c.01.03.013.057.024.088l.01.03.015.024c.021.036.024.054.035.08a5.483 5.483 0 0 0-.12.262l-.003.006-.008.016-.007.021-1.977.225-2.893 3.848.41.7 4.174-2.195.038-.048c.145-.186.4-.368.779-.526l.004-.002.006-.002c.394-.18.741-.3 1.037-.363l2.256-.469-.559-2.162-1.176.39-.48-1.32-.264-.013.275-.627c.105.069.21.138.325.195l.013.006.014.006c.176.066.371.094.584.094h.305l.023-.004c.1-.017.207-.032.324-.05l.44-.064-.242-.369c-.256-.393-.63-.64-1.053-.64-.064 0-.092.008-.149.017-.056.01-.126.022-.212.04l-.004.001h-.002c-.015.003-.023.018-.037.022zm3.065.568l.016.059c0-.002-.004-.003-.004-.004-.007-.018-.005-.037-.012-.055zm-.06.715l-.008.016c.001-.003 0-.006.002-.008l.005-.008zm-3.862 2.129l.315.824-.065.016-.002.002c-.574.139-1.049.296-1.432.478h-.003l-.002.002a5.275 5.275 0 0 0-.96.621l-1.66.951.256-.322.004-.004c.393-.471.69-.856.928-1.19l2.076-.284zm1.338.494l.018.08-.686.164zm-6.398 3.326l.103.12-.318.165zm-.965 5.05c-.002.002-.001.005-.002.007-.001.001-.003 0-.004.002zm1.006.083c.111 0 .193.043.289.064l-.645 1.399 1.516 4.57-.594.297-1.211-4.484-.002-.006a6.223 6.223 0 0 0-.123-.416 2.037 2.037 0 0 1-.047-.377c0-.343.084-.582.238-.762l.004-.004.004-.004a.656.656 0 0 1 .57-.277zm1.154.586l3.506 3.86-2.528 1.14-1.37-4.117zM19 21.13v3.767l-8.677.487-.754-.934 5.26-2.437zM8.203 24.807a1.376 1.376 0 0 0-.27.392c.056-.1.04-.204.138-.306.027-.03.101-.057.132-.086zm.456.205l1.154 1.386 9.437-.511 1.36.959-2.916-.82-5.342.722c-.383.05-.835.093-1.358.127h-.002c-.507.034-.901.049-1.18.049-.223 0-.47-.037-.738-.115a1.49 1.49 0 0 1-.64-.385c-.14-.153-.229-.402-.229-.799 0-.26.213-.433.454-.613zm-.872 1.072c.026.113.06.22.104.318-.007-.017-.026-.034-.031-.05l-.086-.258zm-.279.752l.006.012-.04.01zm.766.13c.061.048.13.079.195.118l-.072.02z"/>
</svg>