<svg xmlns="http://www.w3.org/2000/svg" width="30" height="30" viewBox="0 0 30 30">
    <path d="M10.832 4.469c-.586 0-1.08.12-1.457.394l-.004.002-.002.002a1.834 1.834 0 0 0-.676 1.072.796.796 0 0 0-.033.221.076.076 0 0 1-.004.022v.004c-.162.377-.332.749-.508 1.113l-.002.004-.001.004a94.23 94.23 0 0 0-.502 1.152l-.176.406.888.057.471 1.234c-.502.13-.956.389-1.332.78-.333.346-.645.664-.935.955L5.48 12.953l-2.185-2.057-.264-.87-.642-.856-1.84-.895L0 9.29l.637.428-.575.803 5.405 5.25.851-.03 2.043-1.812.569 4.424-.201 1.23-2.692-3.014-.002-.002a1.676 1.676 0 0 0-.685-.482c-.253-.11-.51-.17-.764-.17-.508 0-.958.217-1.234.613a2 2 0 0 0-.393 1.182c0 .118.016.252.045.428.03.177.055.303.101.42l1.06 3.845c-.358.184-.698.37-.917.602-.274.29-.436.643-.436 1.014 0 .025.006.044.006.068l-.082.053-1.949.347V26H2.98l.968-.268c.334.155.692.268 1.1.268.09 0 .309-.007.7-.021h.011c.415-.03.895-.086 1.443-.17l4.049-.596 2.818.787h2.213v-1.514l-1.963-.345-.836-.598v-4.09l-.394-.039.195-2.596 3.22 1.286.966-1.163-1.658-5.166-.004-.01a6.505 6.505 0 0 0-.254-.7l-.002-.003c-.138-.37-.485-.618-.91-.716l-1.91-.463V9.43c.344-.477.636-.904.851-1.266l.002-.004c.261-.416.4-.86.4-1.312 0-.482-.162-.927-.47-1.286a2.812 2.812 0 0 0-1.17-.822 4.16 4.16 0 0 0-1.512-.271zm.022 1.021c.252 0 .557.05.912.155h.004c.352.1.644.255.886.46a.784.784 0 0 1 .307.66c0 .327-.096.658-.309 1.008h-.002v.002c-.161.273-.354.555-.546.836l-.221-.195.119-.152.006-.01c.06-.092.127-.2.197-.326v-.004c.1-.166.17-.327.17-.512a.999.999 0 0 0-.209-.6.835.835 0 0 0-.668-.337.917.917 0 0 0-.41.093c-.036.018-.066.043-.1.063l-1.164-.656c.076-.113.135-.251.252-.313.215-.113.469-.172.776-.172zM9.412 6.852l.006.003H9.41zm2.545.32l.006.016c0-.002-.003-.003-.004-.004-.001-.004 0-.008-.002-.012zm-1.332.363l.5.283.166-.218c.014-.02.02-.008.031-.022-.04.06-.079.122-.111.176l-.611.86 1.11.947v1.084l2.714.662c.1.03.166.08.236.24l.002.004.002.004c.093.198.162.38.213.545l.002.002 1.494 4.625-.17.212a86.128 86.128 0 0 0-1.504-.568l.006.004c-.44-.172-.888-.351-1.336-.531l2.334.713.305-.551-1.738-3.59-.834-.043-.81 2.25-.284-.094-.412-.77-.877-.632-1.807-.201-.121-.951-3.193 2.77h-.155l-3.75-3.6.297-.247.24.66.057.053c.347.32.659.61.936.873l.004.002.837.756c.276.248.58.531.913.85l.22.21 1.762-1.761c.156-.156.34-.346.55-.57a6.59 6.59 0 0 1 .63-.592l.004-.002c.213-.162.39-.251.503-.277l1.897-.399-.469-1.937-.974.324-.385-1.057-.153-.008.14-.316c.064.037.13.077.194.11l.014.007.016.006c.155.058.324.082.506.082h.255l.026-.004c.08-.013.17-.027.265-.04l.483-.07zm3.277 6.338l.682 1.309-1.016-.293zm-4.496.309l.149.037-.104.324zm2.092.68l.186.312-.125-.049-.002-.002c-.06-.026-.124-.05-.184-.076zm-1.953.41l2.775 1.195-.236 2.994L9.668 20l.268-1.658zm-4.979 1.664c.052 0 .066.018.108.023l-.485 1.09 1.227 3.701-.338.168-.982-3.574-.002-.006v-.002a13.586 13.586 0 0 1-.078-.332l-.002-.008a1.586 1.586 0 0 1-.034-.287c0-.27.061-.449.163-.578v-.002c.113-.141.224-.193.423-.193zm.967.546l2.694 2.98-1.866.85-1.086-3.251zm6.97 2.913v2.91l-6.98.39-.525-.648 4.2-1.95zM4.118 23.6l.893 1.091 5.056-.273-2.931.396c-.311.041-.68.077-1.106.104a16.43 16.43 0 0 1-.963.041c-.157 0-.353-.03-.584-.094a1.135 1.135 0 0 1-.482-.29c-.096-.106-.166-.289-.166-.6 0-.16.162-.261.283-.375zm8.649.671l.7.497-1.593-.448zM25.74 4.469c-.57 0-1.055.11-1.441.357-.386.248-.654.635-.781 1.106l-.004.015-.04.248-1.19 2.627.905.059.413.978.836-.097.203 1.2-2.07 3.438 1.007 1.448-.44 3.601-1.708-2.105h-.002a3.874 3.874 0 0 0-.604-.604c-.265-.224-.626-.304-1.056-.304-.413 0-.797.173-1.07.482a1.667 1.667 0 0 0-.413 1.125c0 .268.023.548.067.84v.008l.002.007c.056.28.105.512.148.698l.885 4.09-2.104.898V26H30v-1.416l-1.65-.709v-7.46h1.164l-.455-9.392-.004-.02c-.15-.865-.545-1.539-1.18-1.939-.6-.398-1.32-.595-2.135-.595zm.022 1.04c.278 0 .572.04.884.118.276.069.54.217.801.465l.002.004.004.002c.235.212.442.56.61 1.039l.359 8.234h-1.957l.355-7.164.178-.26c.117-.167.203-.333.203-.535a.996.996 0 0 0-.207-.598.831.831 0 0 0-.668-.34.925.925 0 0 0-.412.094c-.035.018-.066.043-.1.063l-1.154-.65c.073-.102.118-.228.258-.286l.006-.002.006-.002c.267-.121.541-.181.832-.181zm-1.545 1.34l.006.003-.008.002zm.744.143l.018.014c-.002-.002-.005 0-.006-.002-.005-.003-.008-.009-.012-.012zm1.82.18l.008.015c0-.002-.005-.004-.006-.007 0-.003 0-.006-.002-.008zm-1.347.357l.517.29.108-.145c-.105.133-.2.25-.229.418l-.004.015-.174 2.762-.482-2.195-.996.13-.299-.835-.15-.008.115-.262c.065.04.126.083.195.117l.02.01.021.008c.162.054.334.078.516.078h.234l.026-.004c.08-.013.168-.027.263-.04l.504-.073zm.189 3.791l-.32 5.094h2.047v8.1l1.02.445h-9.483l1.699-.762-1.037-4.676.002.002a67.83 67.83 0 0 0-.168-.751v-.004a3.66 3.66 0 0 1-.098-.725c0-.187.048-.306.149-.416l.004-.004.003-.004c.096-.113.196-.162.39-.162.144 0 .273.047.423.176l.004.004.006.004c.176.138.325.288.447.447l.002.004 2.604 3.2.644-.216.64-5.603-.804-1.102zm-4.975 5.83l.012.008c-.002-.001-.004 0-.006-.002l-.006-.006zm-1.675.057c-.002.002 0 .004-.002.006s-.005 0-.006.002z"/>
</svg>