<svg xmlns="http://www.w3.org/2000/svg" width="30" height="30" viewBox="0 0 30 30"><path d="M15 4a10.621 10.621 0 0 0-4.271.867 10.771 10.771 0 0 0-3.516 2.348 11.237 11.237 0 0 0-2.379 3.514v.001A11.02 11.02 0 0 0 4 15c0 1.51.277 2.936.832 4.271a11.267 11.267 0 0 0 2.38 3.516 10.747 10.747 0 0 0 3.517 2.346c1.336.578 2.76.867 4.271.867 1.51 0 2.922-.289 4.234-.867a10.747 10.747 0 0 0 3.514-2.346 10.465 10.465 0 0 0 2.385-3.516C25.71 17.935 26 16.511 26 15a10.62 10.62 0 0 0-.867-4.27v-.001a10.492 10.492 0 0 0-2.385-3.514 10.752 10.752 0 0 0-3.512-2.346A10.356 10.356 0 0 0 15 4zm0 .965c.935 0 1.83.133 2.69.404l.005.002.008.004h.002a9.666 9.666 0 0 1 2.307 1.002L15 11.494 9.951 6.371a9.79 9.79 0 0 1 2.283-1l.002-.002A9.389 9.389 0 0 1 15 4.965zm5.877 1.953a9.1 9.1 0 0 1 1.205 1c.368.367.697.773 1 1.205L17.137 15l5.945 5.877c-.3.428-.63.834-1 1.205a9.019 9.019 0 0 1-1.205 1L15 17.137l-5.867 5.94a8.953 8.953 0 0 1-2.21-2.21L12.864 15l-5.94-5.867a8.953 8.953 0 0 1 2.21-2.21L15 12.864l5.877-5.945zM6.371 9.951L11.455 15 6.37 20.05a10.953 10.953 0 0 1-1.031-2.269l-.004-.013A10.294 10.294 0 0 1 4.964 15c0-.934.123-1.844.37-2.73l.006-.018c.248-.807.602-1.575 1.031-2.3zm17.25.006A9.793 9.793 0 0 1 25 15a9.791 9.791 0 0 1-1.379 5.041L18.508 15l5.113-5.043zM15 18.506l5.008 5.117A9.731 9.731 0 0 1 15 25a9.799 9.799 0 0 1-5.041-1.379L15 18.506z"/></svg>