<svg xmlns="http://www.w3.org/2000/svg" width="30" height="30" viewBox="0 0 30 30"><path d="M20.207 0l-.11.133c-.289.344-.581.827-.888 1.459l-.002.006-.01.02v.009a10.025 10.025 0 0 0-.627 1.863h-.039v.127a6.536 6.536 0 0 0-.047.264l-.052.258v.004c-.042.348-.1.692-.174 1.035-.083.384-.181.764-.295 1.14v.002a3.103 3.103 0 0 1-.371.813l-.002.002c-.225.317-.51.584-.83.804-.42-.17-.85-.368-1.3-.607l-.007-.004a4.967 4.967 0 0 1-1.193-.906c-.285-.302-.44-.7-.436-1.115v-.002c0-.401.129-.77.406-1.139v-.002c.258-.345.6-.51 1.114-.51.457 0 .747.126.95.37.23.274.321.506.321.699v.002c.002.19-.04.377-.125.546a.289.289 0 0 1-.11.131.348.348 0 0 1-.18.037c-.17 0-.224-.033-.278-.105a.478.478 0 0 1-.08-.238v-.237h-.992v.245c0 .28.106.56.293.84l.003.005c.222.31.602.455 1.053.455.452 0 .84-.201 1.065-.568v-.002a2.07 2.07 0 0 0 .34-1.11v-.001c0-.442-.2-.88-.555-1.309-.372-.487-.965-.723-1.703-.723-.797 0-1.45.289-1.883.852-.414.541-.629 1.134-.629 1.762 0 .604.188 1.146.559 1.591.353.426.778.788 1.271 1.086l.004.002.025.016h.006c.238.137.454.237.674.344-.115.017-.218.047-.355.047-.66 0-1.178-.124-1.567-.348h-.002a3.135 3.135 0 0 1-1.004-.908 3.11 3.11 0 0 1-.369-.81l-.002-.005v-.004a14.576 14.576 0 0 1-.295-1.127l-.002-.01v-.003a28.29 28.29 0 0 1-.2-1.037v-.002l-.003-.008-.117-.637h-.018a8.329 8.329 0 0 0-.638-1.896l-.002-.002-.006-.018-.012-.012C10.496.951 10.217.47 9.934.131L9.822.002l-.08.03-1.34.482.155.254c.205.331.409.753.603 1.255l.008.018.002.006c.209.482.383 1.073.516 1.764v.002c.016.168.04.35.072.546v.002c.033.196.06.385.076.563l-.002-.004c.034.529.105 1.104.205 1.728v.004l.002.006c.121.647.33 1.223.633 1.723l.02.031.035.018c.4.607.891 1.074 1.488 1.353.512.242 1.034.376 1.558.473-.576.07-1.11.164-1.537.316a6.146 6.146 0 0 0-1.068.442v.002l-.127.07v1.02l.225.021c.172.013.352.072.539.185l.025.026h.014c.179.1.312.215.4.342l.014.02.01.005v.002c.083.096.222.328.384.668l.01.02.004.003c.113.196.228.406.342.635l.004.008.004.012.01.01c.117.216.237.406.359.564.114.152.242.279.383.379.083.06.169.097.253.137l-.156 1.18c-.067.62-.15 1.35-.252 2.187v.006c-.086.856-.17 1.713-.25 2.57-.083.875-.161 1.697-.228 2.473v.013c-.05.77-.076 1.396-.076 1.873 0 1.416.182 2.517.578 3.31.193.387.396.686.619.9.224.214.483.345.76.345.276 0 .535-.131.76-.346.223-.214.424-.513.617-.898.397-.794.58-1.896.58-3.313 0-.397-.038-.957-.084-1.554l.007.007-.023-.332a93.34 93.34 0 0 0-.48-5.037v-.01l-.002-.005a65 65 0 0 0-.227-1.977l-.021-.215A55.835 55.835 0 0 0 16 15.111c.233-.115.46-.253.643-.48l.002-.002.01-.014v-.002c.092-.138.2-.311.318-.5h.06v-.101c.123-.218.227-.424.309-.62l.008-.013.002-.002c.132-.235.274-.463.425-.686l.002-.002.006-.007c.106-.145.246-.26.404-.344h.014l.027-.027c.163-.103.346-.166.538-.184l.222-.02V11.08l-.129-.066h-.002a7.138 7.138 0 0 0-1.107-.44l-.012-.004v-.002c-.393-.145-.9-.227-1.44-.297.266-.034.532-.069.792-.142l.008-.002.011-.004c.32-.106.615-.27.903-.451.715.4 1.378.881 1.974 1.476v.002h.002c.633.617 1.199 1.401 1.692 2.356l.113.22.851-.45-.101-.213v-.002c-.514-1.046-1.117-1.907-1.813-2.584a10.39 10.39 0 0 0-1.898-1.483c.176-.185.35-.376.496-.613a4.68 4.68 0 0 0 .639-1.7V6.68c.101-.61.18-1.194.23-1.756a8.1 8.1 0 0 1 .072-.565 7.87 7.87 0 0 0 .07-.535l.01-.02v-.011c.131-.667.295-1.25.489-1.75l.006-.018.002-.004c.21-.5.413-.925.605-1.257V.762l.139-.25L20.207 0zm-1.139 5.932c-.024.141-.034.265-.062.412h-.004l-.018.105a4.463 4.463 0 0 1-.476 1.434c-.086.143-.183.28-.291.406-.075.073-.155.14-.237.205-.069-.036-.137-.073-.209-.105l-.005-.004h-.002l-.024-.01c.233-.198.456-.407.625-.662V7.71l.004-.004.006-.014c.228-.32.399-.678.502-1.058.078-.235.13-.469.191-.703zm-8.111.072c.058.213.104.426.176.639.14.417.306.775.508 1.068.338.492.763.876 1.252 1.176v.023l.064.037.006.002.017.01h.038c.395.208.862.339 1.41.393a7.564 7.564 0 0 1-1.36-.25h-.002c-.629-.2-1.137-.6-1.546-1.227v-.002a4.364 4.364 0 0 1-.5-1.426l-.002-.002c-.026-.146-.038-.294-.061-.441zm5.836 3.03l.084.034c-.21.088-.418.182-.64.23h-.005c-.402.064-.809.1-1.216.1-.182 0-.373-.027-.56-.044a6.2 6.2 0 0 0 .56.027 4.52 4.52 0 0 0 1.777-.348zm-1.777 2.085c.808 0 1.454.075 1.923.215.334.097.538.19.747.283-.245.114-.497.216-.694.47l.01-.01-.018.015-.011.023c-.076.114-.15.23-.223.346h-.002c-.094.154-.18.314-.26.476-.132.216-.26.43-.377.649v.002c-.081.156-.17.307-.265.455a.623.623 0 0 1-.342.254c-.32.087-.657.087-.977 0h-.002a.628.628 0 0 1-.343-.254l-.004-.01-.008-.012a2.677 2.677 0 0 1-.299-.46l-.002-.002a21.64 21.64 0 0 0-.342-.606v-.004l-.017-.027-.487-.822c-.182-.267-.442-.4-.695-.54.196-.081.388-.162.707-.248.472-.126 1.135-.193 1.98-.193zm-.037 4.236h.046c.032.267.07.605.127 1.14v.007c.083.615.168 1.335.252 2.15v.01l.002.008c.202 1.655.36 3.315.477 4.978l.002.006c.066.735.097 1.332.097 1.791 0 1.224-.145 2.151-.408 2.754v.002l-.002.002a3.175 3.175 0 0 1-.377.68v.002c-.103.127-.187.152-.181.152.009 0-.07-.024-.178-.156l-.002-.002a3.178 3.178 0 0 1-.375-.678h-.002V28.2c-.263-.603-.408-1.53-.408-2.754 0-.462.024-1.06.074-1.795v-.01c.147-1.66.307-3.32.479-4.977.084-.822.161-1.543.228-2.164v-.01l.149-1.135z"/></svg>