<svg version="1" xmlns="http://www.w3.org/2000/svg" width="933.333" height="933.333" viewBox="0 0 700.000000 700.000000">
    <path d="M396.8.5c-.2.2-2.5.6-5.2.9C375 3.7 360 13.6 351.7 27.9c-3.8 6.5-7.4 15.9-8.2 21.5-.5 3.4-8.6 22.3-21.5 50.1-1.5 3.3-4.9 10.7-7.5 16.5-2.6 5.8-5.1 10.9-5.6 11.5-.6.6-10.5 1-24.2 1.1h-23.2l-13.5 6.7-13.5 6.6-25.7 32.3c-30.9 38.9-22.7 28.6-64.9 81.3-19.3 24.2-36.2 45.4-37.5 47.1-2.3 2.9-2.4 3.5-1.3 8.4.6 2.8 1.2 5.7 1.3 6.3.1.7 1 4.7 2 8.9l1.8 7.7 6.6 4.2c3.7 2.4 7.6 4.8 8.8 5.5 1.2.6 3.9 2.3 6 3.8 2.1 1.4 4.5 2.6 5.3 2.6.7 0 7.5-2.2 15-4.9 7.5-2.8 23.3-8.4 35.1-12.6 11.8-4.2 23.1-8.3 25-9.1 1.9-.7 17-6.1 33.5-12 35.4-12.5 51.5-18.3 60.8-21.7 3.7-1.3 6.7-2.4 6.8-2.3l.4 1.6c.2.8 2.4 10.3 5 21 2.5 10.7 8.6 37 13.6 58.3 4.9 21.4 10.1 43.7 11.5 49.5 1.4 5.9 2.8 11.8 3.1 13.2.2 1.4 1.1 5.1 1.9 8.2 2.8 11 3.3 15.2 2.3 20.3-.8 4.2-3.3 19.5-4.4 27-.2 1.1-.8 4.7-1.4 8-.6 3.3-1.2 7.2-1.3 8.8-.1 1.5-.6 2.6-1 2.5-.6-.3-12.1-13-36.2-40.2-3.4-3.8-7.2-8.1-8.6-9.6-1.4-1.5-5.4-6-9-10.1-3.6-4-8.7-9.8-11.5-12.9-7.6-8.4-19.4-21.7-24.9-28-12.3-14-20.3-19.7-33.6-23.9-12.8-4-26-3.4-37.3 1.8-15.5 7-26.6 26.8-26.8 47.4-.1 8.1.3 11.3 2.6 21.2 1.6 6.8 14.7 54.8 33 120.8 2.6 9.3 4.5 17 4.4 17.1-.2.2-2.9 1.6-5.9 3.1-9.7 4.8-21.7 13.4-26.8 19.1-7.7 8.6-11.4 16.8-12 26.4-.4 7.7-.6 8.1-3.6 9.9-2.6 1.6-7.4 2.8-18.3 4.7-1.3.2-3.5.6-5 .9-1.6.3-5.5 1-8.8 1.5-3.3.6-7.1 1.3-8.5 1.6-1.4.2-7.1 1.2-12.7 2.2-9.8 1.6-10.3 1.8-10.4 4.2 0 2.1 0 30.2.1 35.2 0 1.7 2.3 1.8 33.1 1.8h33.2l16.4-4.5 16.4-4.5 3.7 1.9c10 5.1 17.8 6.5 35.7 6.6 15.3 0 28.6-.7 38.5-2 1.9-.3 5.8-.7 8.5-1 2.8-.3 5.7-.8 6.5-1 .8-.2 4.4-.7 8-1 3.6-.3 7.2-.8 8-1 1.4-.4 7.7-1.3 12.5-2 1.1-.1 4-.5 6.5-.9 6.2-1 8.7-1.4 14.5-2.2 2.8-.3 5.7-.8 6.6-.9.9-.2 4-.6 7-1 3-.3 6.1-.8 6.9-1 .8-.2 3.5-.7 6-1 4.9-.6 11.6-1.6 14.1-2 .9-.2 4-.6 6.9-1 2.9-.4 6.2-.9 7.4-1.1 1.2-.2 4.1-.6 6.6-1 2.5-.3 7-.9 10-1.4 3-.5 7.8-1.2 10.5-1.5 2.8-.4 5.7-.8 6.5-1 9-2.4 8.7-2.5 91.5 21.1l11.9 3.4h67.1l-.2-18.2c-.1-10.1-.2-19-.2-19.9-.1-1.2-2-1.9-7.8-2.7-11.2-1.8-13.3-2.1-18.3-3.2-2.5-.5-8.5-1.6-13.5-2.5-4.9-.8-9.9-1.7-11-1.9-1.1-.2-3.9-.7-6.2-1.1-2.3-.3-6.1-2.1-8.5-3.9-2.4-1.8-9.4-6.7-15.5-11-6.2-4.2-11.3-8-11.3-8.4-.1-.4-.1-30.3-.2-66.5 0-36.1-.1-65.7-.2-65.8 0 0-2.1-.2-4.6-.5-8.5-.9-9.1-1.2-8.6-4.2.3-1.5.7-7 1.1-12.2.3-5.2.8-11.5 1-14 .2-2.5.7-8.8 1-14 .4-5.2.8-11.1 1-13 .2-1.9.6-7.8 1-13s.8-11.1 1-13c.2-1.9.6-7.8 1-13 .9-11.2.6-9.9 4-22.5 2.2-8.3 17.8-68.6 19-73.5 2-7.8 1.8-8 7.7 9.6 3 9.3 11.3 34.2 18.3 55.4 7 21.2 12.7 39.6 12.8 41 0 2.3-.8 15.4-1.8 27-.3 4.2-1.5 20-2 28-.3 5.4-1.6 22-2 27-.2 2.5-.7 8.1-1 12.5-.3 4.4-.7 10.7-1 14-1.6 20.9-1.1 18.8-8.9 39.4l-3.6 9.4v58.8l3.5-.5c1.9-.3 5.4-1 7.7-1.5 2.4-.6 5.7-1.2 7.3-1.6 1.7-.3 6.6-1.3 11-2.3l8-1.8.5-4.8.5-4.8 12.5-4c6.9-2.2 13.1-4.1 13.8-4.1.6 0 1.2-.3 1.3-.6 0-.3.2-17.3.3-37.6.2-20.4.6-37.9.9-39 .6-2.3 5.5-25.5 6.3-30 .3-1.7 1-5 1.5-7.5.6-2.5 1.2-5.4 1.5-6.5.2-1.1.8-4.3 1.4-7.1.6-2.8 1.3-6.4 1.6-8 .3-1.6 2-10.1 3.9-18.9 1.8-8.8 3.6-17.4 3.8-19 .3-1.7 1.3-6.6 2.2-11.1l1.7-8-10.6-36.5c-5.9-20-11.7-40-13.1-44.4-1.3-4.4-5.1-17.2-8.4-28.5-3.3-11.3-8.5-29.1-11.5-39.5-9.4-32.1-15.2-46.7-20.4-52-2-2.1-6.4-5.1-9.7-6.6-4.6-2.2-30.9-9.3-45.5-12.4l-8-2c-3.6-.9-7.4-1.9-8.4-2.1-1.1-.2-5-1.1-8.8-2l-6.8-1.7v-21.4l6-8.4c10.6-15 23.3-35.2 27.6-43.9 5.6-11.3 7.7-21.4 7.1-33.8-.2-5.4-1-11.7-1.6-14.1-5.5-20.7-28.7-41.8-54.8-49.7-3.2-.9-6.2-1.9-6.8-2.1-6-1.9-19.7-3.5-31.7-3.8-8.1-.2-14.8-.2-15 0zm31.1 23.4c16.3 3.3 34.6 10.8 40.7 16.6.6.5 2.6 2.1 4.4 3.5 4.5 3.4 8.8 10 10.7 16.3 3.1 10.5 0 29.1-7 40.9-1.5 2.6-2.7 4.9-2.7 5.2 0 .8-16.3 25.9-19.7 30.3l-2.4 3.3-2.3-2.3c-1.2-1.2-4.8-4.4-7.9-7.1l-5.7-4.9 3.4-4.1c4.7-5.8 12.3-18.5 14.2-23.7 2.9-8.3.3-17.1-7.4-24.7-7.8-7.9-17.8-8.9-28.3-3l-3.7 2.1-5.9-3.3c-3.2-1.8-13.8-7.7-23.5-13.2l-17.7-10.1 2.4-4.6c5.3-10.2 13.5-15.3 30-18.4 3.8-.7 23 .1 28.4 1.2zm-39.9 57l28.3 15.9 5.4-4.4c6.2-5.1 9.9-5.7 10.9-1.9 1.1 4.3-1.7 9.3-17.9 31.9l-5.6 7.8 3.2 2.6c1.8 1.5 3.4 2.9 3.7 3.2.3.3 5.9 5 12.5 10.5 18 15 16.1 11.3 16 30.7v16.7l15 3.6c77.9 19 74.2 17.9 78 22.9 2.7 3.6 7.4 14.3 10.3 23.6 2 6 9.8 32.3 24.3 82 3.4 11.3 8.3 28.1 11.1 37.5 2.7 9.3 6.5 22.1 8.3 28.4l3.3 11.4-2.8 14.1c-1.6 7.8-3.1 15.2-3.3 16.6-.3 1.4-3.1 15.3-6.2 31s-5.9 29.4-6.1 30.5c-.2 1.1-1.8 8.7-3.5 17-3.1 14.6-3.2 15.8-3.4 42.8-.1 15.2-.4 27.8-.6 28-.2.1-5.5 1.9-11.6 3.9l-11.3 3.6v-11.4c0-11.3.1-11.7 4.6-23.2 5.4-13.7 6.9-19.7 7.9-31.8.4-4.9.8-10.1 1-11.7.2-1.5.7-6.2 1-10.5.4-4.2.8-8.8 1-10.2.2-1.4.7-6.1 1-10.5.3-4.4.8-9.4 1-11 .2-1.7.7-6.6 1.1-11 .3-4.4.8-8.7.9-9.6.2-.8.6-5.5 1-10.5.4-4.9.8-10 1-11.4.2-1.4.7-6.1 1.1-10.5.3-4.4.8-8.7.9-9.5.1-.8-.6-3.8-1.6-6.5-.9-2.8-4.5-12.9-7.9-22.5-3.4-9.6-6.6-18.6-7-20-.4-1.4-3.6-10.4-7-20s-6.6-18.6-7-20c-.4-1.4-3.6-10.4-7-20s-7.5-21.6-9.2-26.5c-1.7-5-3.5-9.3-4.1-9.6-.5-.4-4.3-.7-8.5-.8-4.3-.2-9-.3-10.6-.4-2.9-.2-2.9-.1-5.7 10.3-1.6 5.8-3.1 11.4-3.3 12.5-.2 1.1-1.4 5.6-2.6 10-3.7 13.9-7.2 26.9-7.5 28.5-.2.8-3.7 14.3-7.9 30-8.3 31.4-8.2 30.9-9.1 43-.5 8.2-1 14.2-2 26-.3 3-.7 8.9-1 13-.6 8.6-1.3 17-2 25-.3 3-.7 8.6-1 12.5-1.2 16.2-1.7 21-2.3 21.7-.4.3-6.3 1.8-13.2 3.3-6.9 1.4-13.8 3-15.5 3.5-1.6.5-4.3 1.1-6 1.4-1.6.2-12.2 2.5-23.5 5.1-11.3 2.6-21.2 4.8-22 5-.8.2-3.5.8-6 1.4-2.5.6-4.8 1.1-5.1 1.1-.3 0 0-3.3.8-7.2 1.5-7.9 1.9-10.2 2.8-16.3.5-3.9 1.4-9 2.1-13 1.2-5.9 3.6-19.5 4-22.7.4-2.4-.4-8-2.1-15-1.5-6.2-2.9-12.2-3.1-13.3-.2-1.1-2.6-11.7-5.4-23.5-13.4-58-23.2-100.7-23.5-102.3-.2-1-.6-2.6-.9-3.5-.3-.9-.7-2.8-1-4.2-.6-3.6-7.6-33.3-8-34.6-.3-.8-7.7 1.4-20.8 6.2-11.2 4.1-23.9 8.7-28.3 10.3-4.4 1.6-13.2 4.8-19.5 7.1-6.3 2.3-14.4 5.2-18 6.5-5.5 2-40 14.5-84.5 30.7-17.6 6.4-16 6.2-23.2 2.2l-6.3-3.5v-5c0-4.8.3-5.5 7.3-13.7 4.1-4.8 14.7-17.7 23.6-28.7 9-11 17-20.9 18-22 21.1-25.5 63.6-78.4 70.6-87.9 1.1-1.5 5.9-4.9 10.8-7.7l8.7-4.9 20.1.2 20.2.3 1.5 4.8c1.4 4.6 1.4 5-.8 9.7-2.6 5.5-2.7 5.6-12 6.5-3.6.4-7.8.9-9.5 1.1-1.6.2-5.7.6-9 .9-3.3.4-6.7.8-7.5 1-.8.2-5.1.7-9.5 1-5.4.5-8.5 1.2-9.6 2.3-3.2 3.3-74.9 99.4-74.9 100.4 0 .8 6.1 11.7 7.6 13.7.3.4 23.6-11.2 25.9-12.9.6-.4 7.3-4 15-8 27.1-14.1 46.8-24.4 61.5-32.3 4.1-2.2 9.5-6 11.9-8.3 3.7-3.6 15.7-10.4 25.6-14.5 7.4-3 10.4-4 17.3-5.8 6.3-1.7 31.5-7.2 39.7-8.7 1.1-.2 5.2-1 9-1.8 3.9-.9 8.3-1.8 9.9-2 1.6-.3 3-.7 3.2-.9.2-.2-.8-4.8-2.2-10.3-1.4-5.4-2.7-10.6-2.9-11.4-1-4.8-7.5-29.4-7.9-29.7-.2-.2-7.2 1.9-15.7 4.6-8.4 2.8-15.4 4.9-15.6 4.7-.2-.2-13.3-35.6-13.3-36 0 0-1.9-.2-4.2-.3-2.2-.2-4.3-.5-4.6-.8-.2-.2.2-1.9 1.1-3.7.8-1.8 2.9-6.7 4.7-10.8 1.8-4.1 3.5-7.8 3.9-8.2.4-.4 3.1.7 6.2 2.6 4.9 3 7.8 4.1 13.3 5.2 4.3.8 15.6.5 23.3-.6l8.2-1.2-1.6-2.7c-4-6.3-10.5-12.9-15.4-15.6-4.7-2.6-6.3-3-12.4-2.8-8.2.2-8.9.3-13.4 2.6-1.9.9-3.5 1.7-3.7 1.7-.2 0 1.1-3 2.7-6.8 1.7-3.7 3.5-7.7 4-9 .5-1.2 1-2.2 1.3-2.2.2 0 13.1 7.2 28.6 15.9zm-49.2 74.8c3.9 10.3 7.6 20 8.1 21.5.6 1.6 1.6 2.8 2.4 2.8.7 0 6.9-2.1 13.6-4.6 6.8-2.5 12.7-4.2 13.2-3.7.4.4.9 2.4 1.1 4.3l.3 3.4-11.5 2.8c-6.3 1.5-12.4 3-13.5 3.2-30.7 7.2-49.6 14.9-65.1 26.6-5 3.8-16 10.5-26.9 16.4-4.1 2.3-28.5 16.4-34.2 19.8-1.8 1.1-3.3 1.7-3.3 1.5 0-.3 6.1-8.1 13.6-17.3 7.4-9.3 16.7-21.1 20.6-26.2 3.8-5.1 7.7-9.6 8.6-10.1 1-.5 4.6-1.2 8.2-1.6 3.6-.4 7.4-.9 8.5-1.1 1.1-.2 4.3-.6 7-.9 2.8-.4 6.1-.8 7.5-1 1.4-.2 6.3-.9 11-1.5s9.5-1.3 10.8-1.6c1.7-.3 3.8-3.6 9.3-14.6l7.1-14.2-4-11.7c-2.2-6.4-3.8-12-3.5-12.3 1.9-1.8 4.6 3.2 11.1 20.1zM210.7 402.1c3.7 1.2 3.8.5-2.5 13.9-10 21.5-12.2 26.3-12.2 27.3 0 .6 9.2 28.9 20.5 63s20.4 62 20.3 62.1c-4.8 2.8-21.1 10.6-21.4 10.3-.4-.3-9.7-33.6-10.9-38.7-.2-.8-3.3-12.5-7-26-3.6-13.5-7.5-27.9-8.6-32-1.1-4.1-4.3-15.8-7.1-26-4.7-17.2-5-19.1-4.6-27 .7-11.3 4.5-19.2 12.1-25 4.5-3.4 13.9-4.2 21.4-1.9zm34.8 26.4c4.4 4.8 9.1 10 10.5 11.5 1.4 1.5 6.1 6.7 10.5 11.6 4.4 4.8 8.7 9.5 9.5 10.4.8.9 5.5 6.1 10.5 11.6 4.9 5.4 9.2 10.1 9.5 10.4.3.3 4.8 5.2 10 11s10 11 10.5 11.6c10.1 10.9 15.6 17.4 15.3 18.1-.1.4-12.4 6.3-27.3 13-14.8 6.8-27.9 12.7-29 13.3-14.1 6.5-17.6 7.8-18.1 6.6-.3-.7-9-26.8-19.4-58l-18.9-56.7 4-8.5c2.1-4.7 3.9-8.7 3.9-8.9 0-.3 1.2-3 2.6-6l2.7-5.6 2.6 2.9c1.4 1.5 6.2 6.8 10.6 11.7zM470 568c0 29.7-.3 54-.7 54.1-4.7.4-9.9.8-21.3 1.3-7.4.4-16.2.9-19.5 1.1-3.3.2-10.7.6-16.5 1-5.8.3-13.9.8-18 1-4.1.2-11.8.7-17 1-13.4.7-26.2 1.4-35.5 2-4.4.3-12.5.7-18 1-5.5.3-13.4.7-17.5 1-4.1.3-12.4.7-18.5 1-6 .4-13.9.8-17.5 1-3.6.2-12.3.6-19.5 1-7.1.3-14.4.8-16.2 1-3 .5-3.7-.1-11.5-9.8-4.5-5.6-8.5-10.4-8.8-10.7-.3-.3-2-2.4-3.8-4.7l-3.2-4.2 7.7-3.6c4.3-2.1 16.4-7.7 26.8-12.5 10.5-4.8 23.1-10.7 28-13 5-2.3 13.3-6.1 18.5-8.5 5.2-2.4 14.8-6.8 21.4-9.9 6.5-3.1 11.9-5.6 12.1-5.6.2 0 6.1-2.7 13.2-6.1 7-3.3 14.4-6.7 16.3-7.5 3-1.1 21.1-5.4 29-6.8 1.4-.2 4.8-.9 7.5-1.6 2.8-.6 12.4-2.7 21.5-4.6 9.1-1.9 18.8-3.9 21.5-4.5 2.8-.6 6.1-1.3 7.5-1.5 1.4-.3 8.1-1.8 15-3.3 6.9-1.6 13.5-2.9 14.8-3l2.2-.1v54zm-266.2 69.5l16.2 19.4 5.1-.4c2.8-.2 10.6-.7 17.3-1 13-.6 21.4-1.1 37.1-2 5.5-.3 13.4-.8 17.5-1 17.7-.9 28.9-1.6 35.5-2 3.9-.2 12.4-.7 19-1 6.6-.3 15.2-.7 19-1 3.9-.3 12.6-.7 19.5-1.1 6.9-.3 15.2-.7 18.5-.9 3.3-.2 11.2-.6 17.5-1 6.3-.3 14.7-.8 18.5-1 3.9-.3 12.3-.7 18.7-1.1l11.7-.5 7.8 5.6c27.3 19.7 31.3 22.2 36.6 22.9 2.9.4 6.6.9 8.2 1.1 5.7.8 19 2.4 25 3.1 13 1.4 8.3 2.3-11.6 2.4-20 0-20.9-.1-31.5-3.1-6-1.7-11.6-3.2-12.4-3.4-.8-.2-4-1.1-7-2-3-.9-6.2-1.7-7-2-.8-.2-12.7-3.5-26.5-7.4-25.6-7.3-26-7.4-36.5-5.6-1.4.2-5.4.8-15 2-2.5.4-5.6.8-7 1-1.4.2-7.9 1.1-14.5 2-6.6.8-12.9 1.7-14 1.9-1.1.2-4.7.7-8 1-3.3.4-6.7.9-7.5 1.1-.8.2-4.2.7-7.4 1-3.3.3-7.1.7-8.5.9-1.4.3-9.6 1.4-18.1 2.6-8.5 1.1-16.6 2.3-18 2.5-1.4.2-5 .7-8 1-3 .3-6.6.8-8 1-1.4.2-5.6.7-9.5 1.1-3.8.3-7.8.8-8.8 1-4.1.7-29.3 1.8-43.7 1.9-19.5 0-22.6-.5-35-6.2-4.4-2.1-14-11.6-14-14 0-1.1-.5-2.4-1.1-3-.5-.5-1.3-4.9-1.6-9.6-.6-9.4.7-13.6 6-18.9 2.7-2.7 7.9-6.7 8.8-6.8.3 0 7.8 8.8 16.7 19.5zM159.3 671l1.8 2.9-5.3 1.7c-4.2 1.4-10.1 1.8-28.3 2.2-12.6.2-22.6 0-22.2-.5.5-.4 1.2-.8 1.5-.9 2-.1 14.1-1.6 16.2-1.9 1.4-.2 8.3-1.1 15.5-2 7.1-.9 13.9-2.2 15-3 2.9-2.1 3.9-1.8 5.8 1.5z"/>
</svg>