<?xml version="1.0" encoding="UTF-8" standalone="no"?>
<svg xmlns:dc="http://purl.org/dc/elements/1.1/" xmlns:cc="http://creativecommons.org/ns#" xmlns:rdf="http://www.w3.org/1999/02/22-rdf-syntax-ns#" xmlns:svg="http://www.w3.org/2000/svg" xmlns="http://www.w3.org/2000/svg" xmlns:sodipodi="http://sodipodi.sourceforge.net/DTD/sodipodi-0.dtd" xmlns:inkscape="http://www.inkscape.org/namespaces/inkscape" x="0px" y="0px" viewBox="0 0 930.18 451.56" preserveAspectRatio="xMinYMin meet" version="1.1" id="svg2" inkscape:version="0.91 r13725" sodipodi:docname="Logo_Fritz_Thyssen_Stiftung.svg">
    <defs id="defs177"/>
    <sodipodi:namedview pagecolor="#ffffff" bordercolor="#666666" borderopacity="1" objecttolerance="10" gridtolerance="10" guidetolerance="10" inkscape:pageopacity="0" inkscape:pageshadow="2" inkscape:window-width="857" inkscape:window-height="480" id="namedview175" showgrid="false" inkscape:zoom="0.25457439" inkscape:cx="581.3625" inkscape:cy="278.29687" inkscape:window-x="0" inkscape:window-y="0" inkscape:window-maximized="0" inkscape:current-layer="svg2"/>
    <g id="surface38">
        <path style=" stroke:none;fill-rule:nonzero;fill:rgb(4.623484%,49.52163%,36.365301%);fill-opacity:1;" d="M 668.460938 166.410156 L 653.761719 157.230469 L 653.367188 160.546875 L 668.070313 169.730469 L 668.460938 166.410156 " id="path5"/>
        <path style=" stroke:none;fill-rule:nonzero;fill:rgb(4.623484%,49.52163%,36.365301%);fill-opacity:1;" d="M 642.929688 150.542969 L 628.199219 141.816406 L 628.113281 145.324219 L 642.847656 154.054688 L 642.929688 150.542969 " id="path7"/>
        <path style=" stroke:none;fill-rule:nonzero;fill:rgb(4.623484%,49.52163%,36.365301%);fill-opacity:1;" d="M 618.214844 135.722656 L 603.484375 127.304688 L 603.597656 130.925781 L 618.332031 139.347656 L 618.214844 135.722656 " id="path9"/>
        <path style=" stroke:none;fill-rule:nonzero;fill:rgb(4.623484%,49.52163%,36.365301%);fill-opacity:1;" d="M 594.035156 122.023438 L 579.308594 113.769531 L 579.535156 117.449219 L 594.257813 125.710938 L 594.035156 122.023438 " id="path11"/>
        <path style=" stroke:none;fill-rule:nonzero;fill:rgb(4.623484%,49.52163%,36.365301%);fill-opacity:1;" d="M 568.421875 107.933594 L 553.746094 100.167969 L 554.277344 104.015625 L 568.945313 111.78125 L 568.421875 107.933594 " id="path13"/>
        <path style=" stroke:none;fill-rule:nonzero;fill:rgb(4.623484%,49.52163%,36.365301%);fill-opacity:1;" d="M 543.707031 94.953125 L 529.089844 87.53125 L 529.820313 91.488281 L 544.445313 98.914063 L 543.707031 94.953125 " id="path15"/>
        <path style=" stroke:none;fill-rule:nonzero;fill:rgb(4.623484%,49.52163%,36.365301%);fill-opacity:1;" d="M 519.171875 82.566406 L 504.628906 75.496094 L 505.5625 79.554688 L 520.109375 86.617188 L 519.171875 82.566406 " id="path17"/>
        <path style=" stroke:none;fill-rule:nonzero;fill:rgb(4.623484%,49.52163%,36.365301%);fill-opacity:1;" d="M 494.652344 70.679688 L 480.199219 63.976563 L 481.332031 68.121094 L 495.792969 74.832031 L 494.652344 70.679688 " id="path19"/>
        <path style=" stroke:none;fill-rule:nonzero;fill:rgb(4.623484%,49.52163%,36.365301%);fill-opacity:1;" d="M 470.386719 59.695313 L 456.042969 53.355469 L 457.378906 57.601563 L 471.722656 63.941406 L 470.386719 59.695313 " id="path21"/>
        <path style=" stroke:none;fill-rule:nonzero;fill:rgb(4.623484%,49.52163%,36.365301%);fill-opacity:1;" d="M 445.550781 49.078125 L 431.398438 43.304688 L 433.03125 47.675781 L 447.179688 53.449219 L 445.550781 49.078125 " id="path23"/>
        <path style=" stroke:none;fill-rule:nonzero;fill:rgb(4.623484%,49.52163%,36.365301%);fill-opacity:1;" d="M 421.027344 39.152344 L 407.109375 33.953125 L 409.03125 38.441406 L 422.953125 43.632813 L 421.027344 39.152344 " id="path25"/>
        <path style=" stroke:none;fill-rule:nonzero;fill:rgb(4.623484%,49.52163%,36.365301%);fill-opacity:1;" d="M 397.601563 30.589844 L 383.859375 25.792969 L 385.976563 30.34375 L 399.714844 35.144531 L 397.601563 30.589844 " id="path27"/>
        <path style=" stroke:none;fill-rule:nonzero;fill:rgb(4.623484%,49.52163%,36.365301%);fill-opacity:1;" d="M 373.945313 22.621094 L 360.503906 18.429688 L 362.902344 23.078125 L 376.34375 27.265625 L 373.945313 22.621094 " id="path29"/>
        <path style=" stroke:none;fill-rule:nonzero;fill:rgb(4.623484%,49.52163%,36.365301%);fill-opacity:1;" d="M 350.742188 15.570313 L 337.632813 11.992188 L 340.308594 16.722656 L 353.417969 20.296875 L 350.742188 15.570313 " id="path31"/>
        <path style=" stroke:none;fill-rule:nonzero;fill:rgb(4.623484%,49.52163%,36.365301%);fill-opacity:1;" d="M 327.507813 9.640625 L 314.894531 6.90625 L 317.929688 11.71875 L 330.542969 14.457031 L 327.507813 9.640625 " id="path33"/>
        <path style=" stroke:none;fill-rule:nonzero;fill:rgb(4.623484%,49.52163%,36.365301%);fill-opacity:1;" d="M 305.125 5.046875 L 293.082031 3.160156 L 296.453125 8.039063 L 308.503906 9.929688 L 305.125 5.046875 " id="path35"/>
        <path style=" stroke:none;fill-rule:nonzero;fill:rgb(4.623484%,49.52163%,36.365301%);fill-opacity:1;" d="M 283.617188 1.875 L 272.191406 0.847656 L 275.890625 5.769531 L 287.320313 6.796875 L 283.617188 1.875 " id="path37"/>
        <path style=" stroke:none;fill-rule:nonzero;fill:rgb(4.623484%,49.52163%,36.365301%);fill-opacity:1;" d="M 263.429688 0.164063 L 252.679688 0.00390625 L 256.691406 4.941406 L 267.4375 5.101563 L 263.429688 0.164063 " id="path39"/>
        <path style=" stroke:none;fill-rule:nonzero;fill:rgb(4.623484%,49.52163%,36.365301%);fill-opacity:1;" d="M 243.339844 0.277344 L 233.703125 1.414063 L 238.136719 6.328125 L 247.773438 5.195313 L 243.339844 0.277344 " id="path41"/>
        <path style=" stroke:none;fill-rule:nonzero;fill:rgb(4.623484%,49.52163%,36.365301%);fill-opacity:1;" d="M 225.820313 2.65625 L 217.195313 4.859375 L 221.949219 9.722656 L 230.574219 7.511719 L 225.820313 2.65625 " id="path43"/>
        <path style=" stroke:none;fill-rule:nonzero;fill:rgb(4.623484%,49.52163%,36.365301%);fill-opacity:1;" d="M 209.644531 7.421875 L 202.535156 11.101563 L 207.671875 15.816406 L 214.78125 12.132813 L 209.644531 7.421875 " id="path45"/>
        <path style=" stroke:none;fill-rule:nonzero;fill:rgb(4.623484%,49.52163%,36.365301%);fill-opacity:1;" d="M 196.859375 15.109375 L 191.140625 20.007813 L 196.542969 24.539063 L 202.261719 19.644531 L 196.859375 15.109375 " id="path47"/>
        <path style=" stroke:none;fill-rule:nonzero;fill:rgb(4.623484%,49.52163%,36.365301%);fill-opacity:1;" d="M 186.414063 26.222656 L 182.890625 32.84375 L 188.585938 37.019531 L 192.109375 30.398438 L 186.414063 26.222656 " id="path49"/>
        <path style=" stroke:none;fill-rule:nonzero;fill:rgb(4.623484%,49.52163%,36.365301%);fill-opacity:1;" d="M 180.472656 40.734375 L 179.226563 48.910156 L 185.070313 52.621094 L 186.3125 44.445313 L 180.472656 40.734375 " id="path51"/>
        <path style=" stroke:none;fill-rule:nonzero;fill:rgb(4.623484%,49.52163%,36.365301%);fill-opacity:1;" d="M 179.113281 58.75 L 180.4375 68.425781 L 186.277344 71.515625 L 184.953125 61.839844 L 179.113281 58.75 " id="path53"/>
        <path style=" stroke:none;fill-rule:nonzero;fill:rgb(4.623484%,49.52163%,36.365301%);fill-opacity:1;" d="M 182.082031 77.25 L 184.933594 87.683594 L 190.683594 90.355469 L 187.835938 79.925781 L 182.082031 77.25 " id="path55"/>
        <path style=" stroke:none;fill-rule:nonzero;fill:rgb(4.623484%,49.52163%,36.365301%);fill-opacity:1;" d="M 189.734375 99.449219 L 194.8125 110.808594 L 200.316406 112.792969 L 195.242188 101.4375 L 189.734375 99.449219 " id="path57"/>
        <path style=" stroke:none;fill-rule:nonzero;fill:rgb(4.623484%,49.52163%,36.365301%);fill-opacity:1;" d="M 201.648438 123.210938 L 208.824219 135.199219 L 213.945313 136.460938 L 206.769531 124.460938 L 201.648438 123.210938 " id="path59"/>
        <path style=" stroke:none;fill-rule:nonzero;fill:rgb(4.623484%,49.52163%,36.365301%);fill-opacity:1;" d="M 215.996094 146.6875 L 224.691406 158.976563 L 229.425781 159.644531 L 220.726563 147.351563 L 215.996094 146.6875 " id="path61"/>
        <path style=" stroke:none;fill-rule:nonzero;fill:rgb(4.623484%,49.52163%,36.365301%);fill-opacity:1;" d="M 344.503906 285.265625 L 358.082031 296.664063 L 360.355469 294.714844 L 346.777344 283.316406 L 344.503906 285.265625 " id="path63"/>
        <path style=" stroke:none;fill-rule:nonzero;fill:rgb(4.623484%,49.52163%,36.365301%);fill-opacity:1;" d="M 368.089844 305 L 381.949219 316.121094 L 383.9375 313.941406 L 370.078125 302.8125 L 368.089844 305 " id="path65"/>
        <path style=" stroke:none;fill-rule:nonzero;fill:rgb(4.623484%,49.52163%,36.365301%);fill-opacity:1;" d="M 391.484375 323.796875 L 405.511719 334.726563 L 407.308594 332.386719 L 393.28125 321.460938 L 391.484375 323.796875 " id="path67"/>
        <path style=" stroke:none;fill-rule:nonzero;fill:rgb(4.623484%,49.52163%,36.365301%);fill-opacity:1;" d="M 415.878906 342.554688 L 430.121094 353.15625 L 431.621094 350.597656 L 417.378906 339.992188 L 415.878906 342.554688 " id="path69"/>
        <path style=" stroke:none;fill-rule:nonzero;fill:rgb(4.623484%,49.52163%,36.365301%);fill-opacity:1;" d="M 440.785156 360.867188 L 455.203125 371.117188 L 456.40625 368.339844 L 441.988281 358.085938 L 440.785156 360.867188 " id="path71"/>
        <path style=" stroke:none;fill-rule:nonzero;fill:rgb(4.623484%,49.52163%,36.365301%);fill-opacity:1;" d="M 465.097656 378.144531 L 479.613281 388.144531 L 480.617188 385.226563 L 466.09375 375.21875 L 465.097656 378.144531 " id="path73"/>
        <path style=" stroke:none;fill-rule:nonzero;fill:rgb(4.623484%,49.52163%,36.365301%);fill-opacity:1;" d="M 489.535156 395.089844 L 504.132813 404.828125 L 504.933594 401.773438 L 490.335938 392.03125 L 489.535156 395.089844 " id="path75"/>
        <path style=" stroke:none;fill-rule:nonzero;fill:rgb(4.623484%,49.52163%,36.365301%);fill-opacity:1;" d="M 514.242188 411.226563 L 528.902344 420.695313 L 529.496094 417.503906 L 514.839844 408.035156 L 514.242188 411.226563 " id="path77"/>
        <path style=" stroke:none;fill-rule:nonzero;fill:rgb(4.623484%,49.52163%,36.365301%);fill-opacity:1;" d="M 538.941406 427.054688 L 553.640625 436.238281 L 554.03125 432.917969 L 539.332031 423.738281 L 538.941406 427.054688 " id="path79"/>
        <path style=" stroke:none;fill-rule:nonzero;fill:rgb(4.623484%,49.52163%,36.365301%);fill-opacity:1;" d="M 564.476563 442.828125 L 579.214844 451.558594 L 579.300781 448.054688 L 564.558594 439.320313 L 564.476563 442.828125 " id="path81"/>
        <path style=" stroke:none;fill-rule:nonzero;fill:rgb(85.691615%,10.997177%,18.947127%);fill-opacity:1;" d="M 270.367188 273.546875 L 270.367188 276.929688 L 265.417969 276.929688 L 265.417969 294.292969 L 261.046875 294.292969 L 261.046875 276.929688 L 258.199219 276.929688 L 258.199219 273.546875 L 261.046875 273.546875 L 261.046875 272.226563 C 261.046875 269.835938 261.085938 267.15625 263.273438 265.546875 C 264.757813 264.433594 266.40625 264.390625 267.023438 264.390625 C 267.851563 264.390625 269.253906 264.515625 271.109375 265.214844 L 271.109375 268.84375 C 270.160156 268.515625 268.921875 268.101563 267.890625 268.101563 C 267.394531 268.101563 266.117188 268.226563 265.621094 269.628906 C 265.417969 270.289063 265.417969 271.15625 265.375 272.597656 L 265.375 273.546875 L 270.367188 273.546875 " id="path83"/>
        <path style=" stroke:none;fill-rule:nonzero;fill:rgb(85.691615%,10.997177%,18.947127%);fill-opacity:1;" d="M 292.269531 267.402344 C 292.269531 268.886719 291.070313 270.082031 289.628906 270.082031 C 288.101563 270.042969 286.949219 268.84375 286.949219 267.402344 C 286.988281 265.917969 288.1875 264.761719 289.628906 264.761719 C 291.070313 264.761719 292.269531 265.960938 292.269531 267.402344 Z M 283.359375 267.402344 C 283.359375 268.886719 282.164063 270.082031 280.71875 270.082031 C 279.195313 270.042969 278.039063 268.84375 278.039063 267.402344 C 278.039063 265.917969 279.277344 264.761719 280.71875 264.761719 C 282.164063 264.761719 283.359375 265.960938 283.359375 267.402344 Z M 280.925781 273.546875 L 280.925781 285.796875 C 280.96875 287.15625 280.96875 287.859375 281.175781 288.476563 C 281.460938 289.507813 282.371094 290.953125 284.804688 290.953125 C 285.339844 290.953125 286.453125 290.910156 287.566406 290.046875 C 289.214844 288.726563 289.339844 286.871094 289.339844 284.929688 L 289.339844 273.546875 L 293.628906 273.546875 L 293.628906 287.941406 C 293.628906 290.292969 293.628906 291.40625 293.753906 292.5625 C 293.878906 293.386719 294.082031 294.003906 294.164063 294.292969 L 290.042969 294.292969 C 289.875 293.796875 289.671875 292.972656 289.585938 291.734375 C 289.464844 291.941406 289.011719 292.644531 288.433594 293.222656 C 287.691406 293.882813 286.289063 294.746094 283.9375 294.746094 C 280.429688 294.746094 278.617188 293.015625 277.832031 291.820313 C 276.636719 290.046875 276.636719 287.941406 276.636719 285.921875 L 276.636719 273.546875 L 280.925781 273.546875 " id="path85"/>
        <path style=" stroke:none;fill-rule:nonzero;fill:rgb(85.691615%,10.997177%,18.947127%);fill-opacity:1;" d="M 306.335938 273.546875 C 306.625 275.03125 306.664063 276.105469 306.664063 276.722656 C 306.664063 277.136719 306.625 277.546875 306.625 277.921875 C 307.449219 276.1875 308.519531 274.332031 310.378906 273.507813 C 311.242188 273.136719 311.945313 273.09375 312.316406 273.09375 C 312.769531 273.09375 313.386719 273.175781 314.335938 273.507813 L 314.335938 277.835938 C 313.925781 277.628906 312.769531 276.929688 311.367188 276.929688 C 308.933594 276.929688 307.902344 278.949219 307.65625 279.570313 C 307.035156 280.890625 306.871094 282.085938 306.828125 284.808594 L 306.828125 294.292969 L 302.5 294.292969 L 302.5 280.269531 C 302.457031 276.515625 302.539063 275.691406 302.253906 273.546875 L 306.335938 273.546875 " id="path87"/>
        <path style=" stroke:none;fill-rule:nonzero;fill:rgb(85.691615%,10.997177%,18.947127%);fill-opacity:1;" d="M 381.492188 265.175781 L 387.101563 288.890625 L 392.792969 265.175781 L 396.667969 265.175781 L 402.402344 288.890625 L 408.050781 265.175781 L 412.21875 265.175781 L 404.960938 294.375 L 399.925781 294.375 L 394.6875 273.628906 L 389.492188 294.375 L 384.460938 294.375 L 377.242188 265.175781 L 381.492188 265.175781 " id="path89"/>
        <path style=" stroke:none;fill-rule:nonzero;fill:rgb(85.691615%,10.997177%,18.947127%);fill-opacity:1;" d="M 422.945313 273.546875 L 422.945313 294.292969 L 418.53125 294.292969 L 418.53125 273.546875 Z M 422.65625 265.339844 C 423.195313 265.835938 423.441406 266.699219 423.441406 267.402344 C 423.441406 269.011719 422.328125 270.082031 420.71875 270.082031 C 420.429688 270.082031 419.976563 270.082031 419.359375 269.753906 C 418.160156 269.132813 418.039063 267.855469 418.039063 267.441406 C 418.039063 266.824219 418.242188 266.371094 418.328125 266.164063 C 418.902344 264.84375 420.265625 264.679688 420.71875 264.679688 C 421.378906 264.636719 422.164063 264.886719 422.65625 265.339844 " id="path91"/>
        <path style=" stroke:none;fill-rule:nonzero;fill:rgb(85.691615%,10.997177%,18.947127%);fill-opacity:1;" d="M 442.660156 279.570313 C 442.457031 278.167969 442.042969 277.136719 440.683594 276.597656 C 440.0625 276.394531 439.527344 276.3125 438.910156 276.3125 C 436.394531 276.3125 435.484375 277.878906 435.484375 278.949219 C 435.484375 279.527344 435.652344 279.941406 436.0625 280.351563 C 436.640625 280.929688 437.671875 281.300781 439.363281 281.796875 C 440.847656 282.25 443.609375 282.953125 444.972656 283.898438 C 446.414063 284.929688 447.035156 286.582031 447.035156 288.273438 C 447.035156 289.097656 446.867188 291.652344 444.683594 293.304688 C 442.621094 294.871094 439.652344 294.871094 439.03125 294.871094 C 437.09375 294.871094 434.621094 294.460938 433.011719 293.261719 C 432.722656 293.054688 432.1875 292.601563 431.691406 291.859375 C 431.074219 291.035156 430.453125 289.878906 430.496094 287.613281 L 434.578125 287.613281 C 434.578125 287.859375 434.621094 288.601563 434.90625 289.304688 C 435.773438 291.488281 438.414063 291.488281 438.949219 291.488281 C 441.796875 291.488281 442.703125 289.921875 442.703125 288.558594 C 442.703125 288.230469 442.703125 287.652344 442.125 287.117188 C 441.300781 286.375 439.363281 285.839844 436.847656 285.097656 C 434.90625 284.476563 432.765625 283.777344 431.773438 281.796875 C 431.566406 281.382813 431.238281 280.558594 431.238281 279.320313 C 431.238281 278.578125 431.320313 276.929688 432.640625 275.402344 C 433.589844 274.332031 435.566406 272.96875 438.992188 272.96875 C 441.921875 272.96875 444.890625 273.960938 446.210938 276.804688 C 446.621094 277.714844 446.746094 278.621094 446.828125 279.609375 L 442.660156 279.570313 " id="path93"/>
        <path style=" stroke:none;fill-rule:nonzero;fill:rgb(85.691615%,10.997177%,18.947127%);fill-opacity:1;" d="M 465.597656 279.570313 C 465.390625 278.167969 464.976563 277.136719 463.617188 276.597656 C 462.996094 276.394531 462.460938 276.3125 461.84375 276.3125 C 459.328125 276.3125 458.421875 277.878906 458.421875 278.949219 C 458.421875 279.527344 458.585938 279.941406 458.996094 280.351563 C 459.574219 280.929688 460.605469 281.300781 462.296875 281.796875 C 463.78125 282.25 466.546875 282.953125 467.90625 283.898438 C 469.351563 284.929688 469.96875 286.582031 469.96875 288.273438 C 469.96875 289.097656 469.804688 291.652344 467.617188 293.304688 C 465.554688 294.871094 462.585938 294.871094 461.96875 294.871094 C 460.027344 294.871094 457.554688 294.460938 455.945313 293.261719 C 455.65625 293.054688 455.121094 292.601563 454.625 291.859375 C 454.007813 291.035156 453.386719 289.878906 453.429688 287.613281 L 457.511719 287.613281 C 457.511719 287.859375 457.554688 288.601563 457.84375 289.304688 C 458.707031 291.488281 461.347656 291.488281 461.882813 291.488281 C 464.730469 291.488281 465.636719 289.921875 465.636719 288.558594 C 465.636719 288.230469 465.636719 287.652344 465.058594 287.117188 C 464.234375 286.375 462.296875 285.839844 459.78125 285.097656 C 457.84375 284.476563 455.699219 283.777344 454.707031 281.796875 C 454.5 281.382813 454.171875 280.558594 454.171875 279.320313 C 454.171875 278.578125 454.253906 276.929688 455.574219 275.402344 C 456.523438 274.332031 458.503906 272.96875 461.925781 272.96875 C 464.855469 272.96875 467.824219 273.960938 469.144531 276.804688 C 469.554688 277.714844 469.679688 278.621094 469.761719 279.609375 L 465.597656 279.570313 " id="path95"/>
        <path style=" stroke:none;fill-rule:nonzero;fill:rgb(85.691615%,10.997177%,18.947127%);fill-opacity:1;" d="M 490.429688 281.632813 C 490.386719 281.34375 490.304688 280.640625 490.097656 279.898438 C 489.769531 278.910156 488.902344 276.394531 485.726563 276.394531 C 481.601563 276.433594 480.902344 280.804688 480.734375 281.632813 Z M 480.613281 284.890625 C 480.652344 286.167969 480.816406 287.199219 481.355469 288.394531 C 482.589844 291.117188 485.066406 291.324219 486.140625 291.324219 C 488.078125 291.324219 489.191406 290.457031 489.726563 289.839844 C 490.140625 289.386719 490.429688 288.765625 490.511719 288.601563 L 494.347656 288.890625 C 493.234375 292.808594 490.058594 294.871094 486.015625 294.871094 C 484.941406 294.871094 481.847656 294.707031 479.457031 292.480469 C 478.054688 291.199219 476.28125 288.644531 476.28125 284.1875 C 476.28125 282.332031 476.609375 280.890625 476.777344 280.1875 C 477.972656 275.773438 481.148438 272.96875 485.851563 272.96875 C 487.789063 272.96875 489.480469 273.464844 491.003906 274.621094 C 495.171875 277.796875 494.800781 283.695313 494.800781 284.847656 L 480.613281 284.890625 " id="path97"/>
        <path style=" stroke:none;fill-rule:nonzero;fill:rgb(85.691615%,10.997177%,18.947127%);fill-opacity:1;" d="M 505.855469 273.546875 C 506.144531 274.371094 506.226563 274.867188 506.269531 276.351563 C 506.433594 276.144531 506.597656 275.898438 506.765625 275.691406 C 507.546875 274.742188 509.320313 273.09375 512.496094 273.09375 C 513.074219 273.09375 515.054688 273.136719 516.703125 274.289063 C 519.46875 276.269531 519.261719 279.445313 519.261719 282.332031 L 519.261719 294.292969 L 514.972656 294.292969 L 514.972656 283.074219 C 514.972656 280.683594 514.929688 279.570313 514.351563 278.539063 C 514.105469 278.085938 513.816406 277.796875 513.40625 277.507813 C 512.785156 277.054688 512.042969 276.886719 511.257813 276.886719 C 508.992188 276.886719 507.835938 278.289063 507.382813 278.992188 C 506.765625 280.023438 506.597656 280.929688 506.558594 283.238281 L 506.558594 294.292969 L 502.269531 294.292969 L 502.269531 280.804688 C 502.269531 277.960938 502.308594 276.394531 502.0625 275.113281 C 501.980469 274.578125 501.855469 274.042969 501.691406 273.546875 L 505.855469 273.546875 " id="path99"/>
        <path style=" stroke:none;fill-rule:nonzero;fill:rgb(85.691615%,10.997177%,18.947127%);fill-opacity:1;" d="M 538.855469 279.570313 C 538.648438 278.167969 538.238281 277.136719 536.875 276.597656 C 536.257813 276.394531 535.71875 276.3125 535.101563 276.3125 C 532.585938 276.3125 531.679688 277.878906 531.679688 278.949219 C 531.679688 279.527344 531.84375 279.941406 532.257813 280.351563 C 532.832031 280.929688 533.863281 281.300781 535.554688 281.796875 C 537.039063 282.25 539.804688 282.953125 541.164063 283.898438 C 542.609375 284.929688 543.226563 286.582031 543.226563 288.273438 C 543.226563 289.097656 543.0625 291.652344 540.875 293.304688 C 538.8125 294.871094 535.84375 294.871094 535.226563 294.871094 C 533.289063 294.871094 530.8125 294.460938 529.203125 293.261719 C 528.914063 293.054688 528.378906 292.601563 527.882813 291.859375 C 527.265625 291.035156 526.648438 289.878906 526.6875 287.613281 L 530.769531 287.613281 C 530.769531 287.859375 530.8125 288.601563 531.101563 289.304688 C 531.96875 291.488281 534.605469 291.488281 535.144531 291.488281 C 537.988281 291.488281 538.894531 289.921875 538.894531 288.558594 C 538.894531 288.230469 538.894531 287.652344 538.320313 287.117188 C 537.492188 286.375 535.554688 285.839844 533.039063 285.097656 C 531.101563 284.476563 528.957031 283.777344 527.964844 281.796875 C 527.761719 281.382813 527.429688 280.558594 527.429688 279.320313 C 527.429688 278.578125 527.511719 276.929688 528.832031 275.402344 C 529.78125 274.332031 531.761719 272.96875 535.183594 272.96875 C 538.113281 272.96875 541.082031 273.960938 542.402344 276.804688 C 542.816406 277.714844 542.9375 278.621094 543.019531 279.609375 L 538.855469 279.570313 " id="path101"/>
        <path style=" stroke:none;fill-rule:nonzero;fill:rgb(85.691615%,10.997177%,18.947127%);fill-opacity:1;" d="M 562.820313 280.394531 C 562.695313 279.445313 562.367188 278.332031 561.707031 277.589844 C 561.292969 277.09375 560.46875 276.476563 558.941406 276.476563 C 554.941406 276.476563 553.953125 280.929688 553.953125 283.980469 C 553.953125 285.921875 554.40625 288.765625 555.933594 290.210938 C 556.425781 290.664063 557.335938 291.363281 558.984375 291.363281 C 562.574219 291.363281 562.902344 287.984375 563.027344 287.035156 L 567.191406 287.074219 C 567.191406 287.15625 567.152344 287.984375 567.027344 288.558594 C 566.613281 290.335938 565.582031 292.191406 564.140625 293.304688 C 563.273438 293.964844 561.582031 294.871094 558.941406 294.871094 C 557.5 294.871094 556.054688 294.582031 554.777344 293.921875 C 550.984375 292.023438 549.539063 287.902344 549.539063 283.941406 C 549.539063 283.363281 549.582031 281.878906 549.992188 280.269531 C 550.324219 278.949219 551.644531 274.742188 556.015625 273.382813 C 557.292969 272.96875 558.613281 272.96875 559.066406 272.96875 C 561.210938 272.96875 563.109375 273.546875 564.675781 275.03125 C 565.089844 275.445313 565.789063 276.144531 566.324219 277.425781 C 566.65625 278.125 566.863281 278.828125 567.066406 280.394531 L 562.820313 280.394531 " id="path103"/>
        <path style=" stroke:none;fill-rule:nonzero;fill:rgb(85.691615%,10.997177%,18.947127%);fill-opacity:1;" d="M 578.992188 264.96875 L 579.03125 275.898438 C 579.03125 275.855469 579.527344 275.28125 579.855469 274.949219 C 580.640625 274.289063 582.289063 273.09375 584.929688 273.09375 C 585.632813 273.09375 588.765625 273.21875 590.496094 275.445313 C 591.652344 277.011719 591.816406 278.660156 591.816406 282.332031 L 591.816406 294.292969 L 587.527344 294.292969 L 587.527344 281.960938 C 587.488281 279.488281 586.992188 278.289063 585.917969 277.546875 C 585.546875 277.300781 584.847656 276.886719 583.691406 276.886719 C 582.992188 276.886719 581.339844 277.054688 580.144531 278.621094 C 579.320313 279.691406 579.074219 280.765625 578.992188 283.324219 L 578.992188 294.292969 L 574.703125 294.292969 L 574.703125 264.96875 L 578.992188 264.96875 " id="path105"/>
        <path style=" stroke:none;fill-rule:nonzero;fill:rgb(85.691615%,10.997177%,18.947127%);fill-opacity:1;" d="M 611.988281 283.777344 C 608.277344 284.355469 605.925781 284.929688 604.730469 286.167969 C 604.195313 286.746094 603.863281 287.613281 603.863281 288.394531 C 603.863281 288.890625 604.027344 289.46875 604.277344 289.878906 C 604.6875 290.5 605.597656 291.363281 607.410156 291.363281 C 607.988281 291.363281 609.84375 291.242188 611.039063 289.714844 C 611.824219 288.683594 611.949219 287.734375 611.988281 285.382813 Z M 600.152344 279.402344 C 600.359375 277.835938 600.730469 277.011719 601.101563 276.394531 C 603.082031 273.050781 607.988281 273.09375 608.648438 273.09375 C 609.144531 273.09375 611.742188 273.09375 613.597656 274.207031 C 614.050781 274.496094 615.082031 275.195313 615.617188 276.558594 C 615.988281 277.507813 616.195313 278.949219 616.15625 281.175781 L 616.15625 289.304688 C 616.15625 291.859375 616.277344 293.097656 616.816406 294.292969 L 612.855469 294.292969 C 612.484375 292.933594 612.484375 292.480469 612.484375 291.734375 C 611.699219 293.097656 610.132813 294.746094 606.585938 294.746094 C 605.800781 294.746094 602.171875 294.789063 600.359375 291.984375 C 599.988281 291.449219 599.449219 290.457031 599.449219 288.847656 C 599.449219 287.777344 599.738281 285.261719 602.296875 283.570313 C 604.855469 281.921875 609.101563 281.34375 611.988281 280.804688 L 611.988281 280.230469 C 611.988281 279.238281 611.949219 278.867188 611.78125 278.375 C 611.289063 276.929688 609.761719 276.558594 608.402344 276.558594 C 605.429688 276.558594 604.566406 278.003906 604.316406 279.402344 L 600.152344 279.402344 " id="path107"/>
        <path style=" stroke:none;fill-rule:nonzero;fill:rgb(85.691615%,10.997177%,18.947127%);fill-opacity:1;" d="M 634.839844 273.546875 L 634.839844 276.929688 L 629.890625 276.929688 L 629.890625 294.292969 L 625.519531 294.292969 L 625.519531 276.929688 L 622.671875 276.929688 L 622.671875 273.546875 L 625.519531 273.546875 L 625.519531 272.226563 C 625.519531 269.835938 625.5625 267.15625 627.746094 265.546875 C 629.230469 264.433594 630.882813 264.390625 631.5 264.390625 C 632.324219 264.390625 633.726563 264.515625 635.582031 265.214844 L 635.582031 268.84375 C 634.632813 268.515625 633.398438 268.101563 632.367188 268.101563 C 631.871094 268.101563 630.59375 268.226563 630.097656 269.628906 C 629.890625 270.289063 629.890625 271.15625 629.851563 272.597656 L 629.851563 273.546875 L 634.839844 273.546875 " id="path109"/>
        <path style=" stroke:none;fill-rule:nonzero;fill:rgb(85.691615%,10.997177%,18.947127%);fill-opacity:1;" d="M 651.382813 273.546875 L 651.300781 276.929688 L 646.761719 276.929688 L 646.597656 286.128906 C 646.597656 286.953125 646.554688 287.777344 646.597656 288.601563 C 646.597656 288.726563 646.597656 289.46875 646.804688 289.960938 C 647.296875 290.953125 648.496094 290.953125 648.78125 290.953125 C 650.183594 290.953125 651.421875 290.417969 651.835938 290.253906 L 651.792969 293.882813 C 651.464844 294.003906 651.175781 294.128906 650.84375 294.210938 C 650.390625 294.375 649.03125 294.707031 647.585938 294.707031 C 644.328125 294.707031 642.96875 293.054688 642.515625 291.734375 C 642.101563 290.582031 642.140625 289.34375 642.140625 288.972656 C 642.140625 288.023438 642.183594 287.074219 642.226563 286.128906 L 642.472656 276.929688 L 639.296875 276.929688 L 639.378906 273.546875 L 642.597656 273.546875 L 642.761719 267.566406 L 646.925781 267.566406 L 646.804688 273.546875 L 651.382813 273.546875 " id="path111"/>
        <path style=" stroke:none;fill-rule:nonzero;fill:rgb(85.691615%,10.997177%,18.947127%);fill-opacity:1;" d="M 669.449219 279.570313 C 669.242188 278.167969 668.828125 277.136719 667.46875 276.597656 C 666.847656 276.394531 666.3125 276.3125 665.695313 276.3125 C 663.179688 276.3125 662.269531 277.878906 662.269531 278.949219 C 662.269531 279.527344 662.4375 279.941406 662.847656 280.351563 C 663.425781 280.929688 664.457031 281.300781 666.148438 281.796875 C 667.632813 282.25 670.398438 282.953125 671.757813 283.898438 C 673.203125 284.929688 673.820313 286.582031 673.820313 288.273438 C 673.820313 289.097656 673.65625 291.652344 671.46875 293.304688 C 669.40625 294.871094 666.4375 294.871094 665.820313 294.871094 C 663.878906 294.871094 661.40625 294.460938 659.796875 293.261719 C 659.507813 293.054688 658.972656 292.601563 658.476563 291.859375 C 657.859375 291.035156 657.238281 289.878906 657.28125 287.613281 L 661.363281 287.613281 C 661.363281 287.859375 661.40625 288.601563 661.695313 289.304688 C 662.558594 291.488281 665.199219 291.488281 665.734375 291.488281 C 668.582031 291.488281 669.488281 289.921875 669.488281 288.558594 C 669.488281 288.230469 669.488281 287.652344 668.910156 287.117188 C 668.085938 286.375 666.148438 285.839844 663.632813 285.097656 C 661.695313 284.476563 659.550781 283.777344 658.558594 281.796875 C 658.351563 281.382813 658.023438 280.558594 658.023438 279.320313 C 658.023438 278.578125 658.105469 276.929688 659.425781 275.402344 C 660.375 274.332031 662.355469 272.96875 665.777344 272.96875 C 668.707031 272.96875 671.675781 273.960938 672.996094 276.804688 C 673.40625 277.714844 673.53125 278.621094 673.613281 279.609375 L 669.449219 279.570313 " id="path113"/>
        <path style=" stroke:none;fill-rule:nonzero;fill:rgb(85.691615%,10.997177%,18.947127%);fill-opacity:1;" d="M 691.351563 273.546875 L 691.351563 276.929688 L 686.402344 276.929688 L 686.402344 294.292969 L 682.03125 294.292969 L 682.03125 276.929688 L 679.183594 276.929688 L 679.183594 273.546875 L 682.03125 273.546875 L 682.03125 272.226563 C 682.03125 269.835938 682.070313 267.15625 684.257813 265.546875 C 685.742188 264.433594 687.390625 264.390625 688.011719 264.390625 C 688.835938 264.390625 690.238281 264.515625 692.09375 265.214844 L 692.09375 268.84375 C 691.144531 268.515625 689.90625 268.101563 688.875 268.101563 C 688.382813 268.101563 687.101563 268.226563 686.609375 269.628906 C 686.402344 270.289063 686.402344 271.15625 686.359375 272.597656 L 686.359375 273.546875 L 691.351563 273.546875 " id="path115"/>
        <path style=" stroke:none;fill-rule:nonzero;fill:rgb(85.691615%,10.997177%,18.947127%);fill-opacity:1;" d="M 713.210938 267.402344 C 713.171875 268.886719 711.976563 270.082031 710.53125 270.082031 C 709.046875 270.042969 707.890625 268.84375 707.890625 267.402344 C 707.890625 267.238281 707.890625 266.785156 708.097656 266.328125 C 708.304688 265.878906 709.046875 264.761719 710.53125 264.761719 C 712.015625 264.761719 713.210938 265.960938 713.210938 267.402344 Z M 702.984375 290.128906 C 703.480469 290.582031 704.425781 291.363281 706.078125 291.324219 C 706.488281 291.324219 707.398438 291.28125 708.347656 290.746094 C 711.355469 289.015625 711.355469 284.476563 711.355469 283.941406 C 711.355469 283.324219 711.355469 279.363281 708.839844 277.425781 C 708.058594 276.804688 707.109375 276.476563 706.078125 276.476563 C 705.664063 276.476563 704.796875 276.515625 703.890625 277.011719 C 702.367188 277.878906 700.796875 280.023438 700.796875 283.980469 C 700.796875 284.640625 700.796875 288.105469 702.984375 290.128906 Z M 704.261719 267.402344 C 704.261719 268.886719 703.066406 270.082031 701.621094 270.082031 C 700.136719 270.042969 698.984375 268.84375 698.984375 267.402344 C 698.984375 265.917969 700.179688 264.761719 701.621094 264.761719 C 703.066406 264.761719 704.261719 265.960938 704.261719 267.402344 Z M 701.375 274.207031 C 702.117188 273.796875 703.769531 272.96875 706.078125 272.96875 C 706.859375 272.96875 708.511719 273.050781 710.324219 273.960938 C 714.121094 275.855469 715.769531 279.941406 715.769531 283.941406 C 715.769531 287.902344 714.160156 291.902344 710.492188 293.796875 C 708.632813 294.746094 706.820313 294.871094 706.078125 294.871094 C 705.375 294.871094 703.683594 294.789063 701.953125 293.921875 C 698.117188 292.109375 696.386719 287.984375 696.386719 283.941406 C 696.386719 280.105469 697.910156 276.1875 701.375 274.207031 " id="path117"/>
        <path style=" stroke:none;fill-rule:nonzero;fill:rgb(85.691615%,10.997177%,18.947127%);fill-opacity:1;" d="M 726.703125 273.546875 C 726.992188 275.03125 727.03125 276.105469 727.03125 276.722656 C 727.03125 277.136719 726.992188 277.546875 726.992188 277.921875 C 727.816406 276.1875 728.886719 274.332031 730.742188 273.507813 C 731.609375 273.136719 732.3125 273.09375 732.683594 273.09375 C 733.136719 273.09375 733.753906 273.175781 734.703125 273.507813 L 734.703125 277.835938 C 734.289063 277.628906 733.136719 276.929688 731.734375 276.929688 C 729.300781 276.929688 728.269531 278.949219 728.023438 279.570313 C 727.402344 280.890625 727.238281 282.085938 727.195313 284.808594 L 727.195313 294.292969 L 722.867188 294.292969 L 722.867188 280.269531 C 722.824219 276.515625 722.90625 275.691406 722.617188 273.546875 L 726.703125 273.546875 " id="path119"/>
        <path style=" stroke:none;fill-rule:nonzero;fill:rgb(85.691615%,10.997177%,18.947127%);fill-opacity:1;" d="M 743.574219 284.023438 C 743.574219 284.269531 743.53125 289.097656 746.378906 290.621094 C 746.75 290.828125 747.367188 291.117188 748.398438 291.117188 C 753.429688 291.117188 753.308594 284.148438 753.308594 283.898438 C 753.308594 283.363281 753.308594 282.210938 752.9375 280.804688 C 752.6875 279.859375 751.90625 276.683594 748.398438 276.722656 C 743.449219 276.765625 743.574219 283.898438 743.574219 284.023438 Z M 757.554688 287.941406 C 757.554688 291.363281 757.515625 292.480469 757.925781 294.292969 L 753.84375 294.292969 C 753.761719 293.839844 753.597656 293.179688 753.597656 292.148438 C 753.597656 291.902344 753.636719 291.652344 753.636719 291.363281 C 752.851563 292.683594 751.492188 294.746094 747.78125 294.746094 C 747.160156 294.746094 745.59375 294.707031 744.066406 293.921875 C 740.4375 292.023438 739.203125 287.859375 739.203125 284.105469 C 739.203125 283.488281 739.203125 281.796875 739.695313 280.023438 C 740.726563 276.269531 743.492188 273.09375 747.65625 273.09375 C 748.273438 273.09375 750.214844 273.175781 751.699219 274.371094 C 752.523438 275.03125 753.058594 275.855469 753.226563 276.144531 L 753.226563 264.96875 L 757.554688 264.96875 L 757.554688 287.941406 " id="path121"/>
        <path style=" stroke:none;fill-rule:nonzero;fill:rgb(85.691615%,10.997177%,18.947127%);fill-opacity:1;" d="M 779.210938 281.632813 C 779.171875 281.34375 779.085938 280.640625 778.882813 279.898438 C 778.550781 278.910156 777.683594 276.394531 774.507813 276.394531 C 770.386719 276.433594 769.683594 280.804688 769.519531 281.632813 Z M 769.394531 284.890625 C 769.4375 286.167969 769.601563 287.199219 770.136719 288.394531 C 771.375 291.117188 773.851563 291.324219 774.921875 291.324219 C 776.859375 291.324219 777.972656 290.457031 778.511719 289.839844 C 778.921875 289.386719 779.210938 288.765625 779.292969 288.601563 L 783.128906 288.890625 C 782.015625 292.808594 778.839844 294.871094 774.796875 294.871094 C 773.726563 294.871094 770.632813 294.707031 768.242188 292.480469 C 766.839844 291.199219 765.066406 288.644531 765.066406 284.1875 C 765.066406 282.332031 765.394531 280.890625 765.558594 280.1875 C 766.753906 275.773438 769.929688 272.96875 774.632813 272.96875 C 776.570313 272.96875 778.261719 273.464844 779.789063 274.621094 C 783.953125 277.796875 783.582031 283.695313 783.582031 284.847656 L 769.394531 284.890625 " id="path123"/>
        <path style=" stroke:none;fill-rule:nonzero;fill:rgb(85.691615%,10.997177%,18.947127%);fill-opacity:1;" d="M 794.929688 273.546875 C 795.21875 275.03125 795.257813 276.105469 795.257813 276.722656 C 795.257813 277.136719 795.21875 277.546875 795.21875 277.921875 C 796.042969 276.1875 797.113281 274.332031 798.96875 273.507813 C 799.835938 273.136719 800.539063 273.09375 800.910156 273.09375 C 801.363281 273.09375 801.980469 273.175781 802.929688 273.507813 L 802.929688 277.835938 C 802.515625 277.628906 801.363281 276.929688 799.960938 276.929688 C 797.527344 276.929688 796.496094 278.949219 796.25 279.570313 C 795.628906 280.890625 795.464844 282.085938 795.421875 284.808594 L 795.421875 294.292969 L 791.09375 294.292969 L 791.09375 280.269531 C 791.050781 276.515625 791.132813 275.691406 790.84375 273.546875 L 794.929688 273.546875 " id="path125"/>
        <path style=" stroke:none;fill-rule:nonzero;fill:rgb(85.691615%,10.997177%,18.947127%);fill-opacity:1;" d="M 813.035156 273.546875 L 813.035156 285.796875 C 813.078125 287.15625 813.078125 287.859375 813.285156 288.476563 C 813.574219 289.507813 814.480469 290.953125 816.914063 290.953125 C 817.449219 290.953125 818.5625 290.910156 819.675781 290.046875 C 821.328125 288.726563 821.449219 286.871094 821.449219 284.929688 L 821.449219 273.546875 L 825.738281 273.546875 L 825.738281 287.941406 C 825.738281 290.292969 825.738281 291.40625 825.863281 292.5625 C 825.988281 293.386719 826.195313 294.003906 826.277344 294.292969 L 822.152344 294.292969 C 821.988281 293.796875 821.78125 292.972656 821.699219 291.734375 C 821.574219 291.941406 821.121094 292.644531 820.542969 293.222656 C 819.800781 293.882813 818.398438 294.746094 816.046875 294.746094 C 812.542969 294.746094 810.726563 293.015625 809.941406 291.820313 C 808.746094 290.046875 808.746094 287.941406 808.746094 285.921875 L 808.746094 273.546875 L 813.035156 273.546875 " id="path127"/>
        <path style=" stroke:none;fill-rule:nonzero;fill:rgb(85.691615%,10.997177%,18.947127%);fill-opacity:1;" d="M 838.15625 273.546875 C 838.445313 274.371094 838.527344 274.867188 838.570313 276.351563 C 838.734375 276.144531 838.898438 275.898438 839.066406 275.691406 C 839.847656 274.742188 841.621094 273.09375 844.796875 273.09375 C 845.375 273.09375 847.355469 273.136719 849.003906 274.289063 C 851.769531 276.269531 851.5625 279.445313 851.5625 282.332031 L 851.5625 294.292969 L 847.273438 294.292969 L 847.273438 283.074219 C 847.273438 280.683594 847.230469 279.570313 846.652344 278.539063 C 846.40625 278.085938 846.117188 277.796875 845.707031 277.507813 C 845.085938 277.054688 844.34375 276.886719 843.558594 276.886719 C 841.292969 276.886719 840.136719 278.289063 839.683594 278.992188 C 839.066406 280.023438 838.898438 280.929688 838.859375 283.238281 L 838.859375 294.292969 L 834.570313 294.292969 L 834.570313 280.804688 C 834.570313 277.960938 834.609375 276.394531 834.363281 275.113281 C 834.28125 274.578125 834.15625 274.042969 833.992188 273.546875 L 838.15625 273.546875 " id="path129"/>
        <path style=" stroke:none;fill-rule:nonzero;fill:rgb(85.691615%,10.997177%,18.947127%);fill-opacity:1;" d="M 863.8125 280.351563 C 863.8125 282.703125 865.628906 283.980469 867.816406 283.980469 C 870.042969 283.941406 871.773438 282.664063 871.773438 280.351563 C 871.773438 277.921875 870.082031 276.394531 867.648438 276.476563 C 865.464844 276.558594 863.8125 278.042969 863.8125 280.351563 Z M 861.875 296.769531 C 861.875 297.429688 862.039063 298.253906 863.320313 298.914063 C 865.09375 299.863281 867.609375 299.863281 868.0625 299.863281 C 870.414063 299.863281 873.710938 299.203125 873.753906 296.808594 C 873.710938 295.613281 872.96875 295.035156 872.640625 294.828125 C 871.734375 294.171875 870.289063 293.757813 867.855469 293.714844 C 864.226563 293.632813 861.835938 294.707031 861.875 296.769531 Z M 878.375 276.683594 L 874.167969 276.683594 C 874.703125 277.300781 875.570313 278.703125 875.570313 280.847656 C 875.570313 282.128906 875.199219 283.15625 874.992188 283.570313 C 874.085938 285.550781 872.269531 286.582031 868.269531 287.117188 C 866.824219 287.324219 865.957031 287.445313 865.382813 287.695313 C 864.597656 288.023438 864.308594 288.519531 864.308594 288.890625 C 864.308594 289.015625 864.351563 289.34375 864.640625 289.589844 C 865.09375 289.878906 866.414063 290.003906 867.816406 290.171875 C 870.042969 290.375 873.671875 290.582031 875.609375 291.859375 C 876.394531 292.394531 877.878906 293.839844 877.878906 296.4375 C 877.878906 297.015625 877.796875 298.417969 876.847656 299.777344 C 874.992188 302.503906 871.03125 303.121094 868.019531 303.121094 C 867.402344 303.121094 862.90625 303.160156 860.226563 301.140625 C 859.523438 300.644531 858.121094 299.367188 858.121094 297.058594 C 858.121094 293.46875 861.464844 292.4375 862.371094 292.109375 C 862.082031 291.984375 861.835938 291.859375 861.546875 291.734375 C 861.257813 291.570313 860.101563 290.992188 860.101563 289.675781 C 860.101563 288.148438 861.296875 287.28125 863.773438 286.335938 C 863.484375 286.167969 862.949219 285.960938 862.289063 285.46875 C 861.339844 284.765625 859.976563 283.238281 859.976563 280.394531 C 859.976563 279.363281 860.144531 278.496094 860.515625 277.546875 C 861.296875 275.609375 863.359375 273.175781 868.144531 273.175781 C 869.546875 273.175781 870.453125 273.339844 871.773438 273.710938 L 878.375 273.546875 L 878.375 276.683594 " id="path131"/>
        <path style=" stroke:none;fill-rule:nonzero;fill:rgb(13.730068%,12.159915%,12.54902%);fill-opacity:1;" d="M 17.496094 240.492188 C 17.59375 242.46875 17.59375 243.460938 17.890625 244.347656 C 18.976563 247.117188 23.921875 247.3125 26.195313 247.414063 L 26.09375 249.984375 C 21.84375 249.585938 17.398438 249.191406 13.046875 249.191406 C 8.699219 249.191406 4.347656 249.585938 0 249.984375 L 0 247.414063 C 2.175781 247.3125 6.917969 247.117188 8.105469 244.644531 C 8.601563 243.65625 8.601563 242.570313 8.699219 240.492188 L 8.699219 189.289063 C 8.601563 187.3125 8.601563 186.226563 8.105469 185.238281 C 6.917969 182.667969 2.175781 182.570313 0 182.371094 L 0 179.898438 L 45.570313 179.898438 L 47.445313 195.617188 L 45.074219 195.519531 C 44.578125 193.9375 44.183594 192.257813 43.589844 190.675781 C 42.703125 188.203125 41.515625 186.027344 39.339844 184.644531 C 36.769531 182.867188 33.609375 183.0625 32.621094 183.0625 L 17.496094 183.0625 L 17.496094 211.730469 L 32.519531 211.730469 C 34.003906 211.828125 35.289063 211.828125 36.472656 210.742188 C 37.957031 209.554688 38.453125 207.082031 38.648438 203.128906 L 41.21875 203.128906 L 41.21875 223.691406 L 38.648438 223.691406 C 38.550781 219.339844 37.5625 216.472656 35.683594 215.585938 C 34.398438 214.992188 32.027344 214.992188 32.027344 214.992188 L 17.496094 214.992188 L 17.496094 240.492188 " id="path133"/>
        <path style=" stroke:none;fill-rule:nonzero;fill:rgb(13.730068%,12.159915%,12.54902%);fill-opacity:1;" d="M 52.292969 201.054688 C 55.257813 200.757813 59.410156 200.363281 66.03125 198.582031 C 66.230469 200.460938 66.527344 202.238281 66.722656 204.117188 C 66.824219 205.601563 66.921875 206.984375 67.019531 208.46875 C 67.414063 207.183594 67.8125 206.589844 68.109375 205.996094 C 70.578125 201.84375 74.234375 198.976563 79.277344 198.976563 C 86.691406 198.976563 88.273438 204.910156 88.273438 207.480469 C 88.273438 211.53125 85.503906 212.519531 83.824219 212.519531 C 81.847656 212.519531 79.671875 211.335938 79.671875 208.960938 C 79.671875 208.46875 79.773438 207.773438 79.96875 206.785156 C 80.070313 206.6875 80.167969 206.195313 80.167969 205.898438 C 80.070313 204.117188 78.386719 203.425781 76.90625 203.425781 C 75.917969 203.425781 74.234375 203.625 72.457031 205.304688 C 68.503906 209.058594 68.109375 215.386719 68.007813 220.328125 L 68.007813 242.273438 C 68.007813 243.953125 68.007813 244.742188 68.40625 245.535156 C 69.292969 247.414063 71.667969 247.710938 75.523438 247.90625 L 75.421875 249.984375 C 71.566406 249.6875 67.710938 249.390625 63.757813 249.390625 C 59.902344 249.390625 55.949219 249.6875 52.09375 249.984375 L 52.09375 247.90625 C 55.753906 247.710938 58.125 247.3125 59.015625 245.832031 C 59.507813 245.140625 59.605469 243.953125 59.605469 242.273438 L 59.605469 207.773438 C 59.605469 206.390625 59.605469 204.613281 58.519531 203.722656 C 57.332031 202.832031 55.160156 202.933594 52.195313 202.832031 L 52.292969 201.054688 " id="path135"/>
        <path style=" stroke:none;fill-rule:nonzero;fill:rgb(13.730068%,12.159915%,12.54902%);fill-opacity:1;" d="M 97.863281 184.726563 C 97.863281 181.566406 100.136719 178.894531 103.496094 178.996094 C 106.660156 178.996094 109.03125 181.664063 109.03125 184.726563 C 109.03125 187.988281 106.757813 190.558594 103.398438 190.558594 C 100.234375 190.558594 97.863281 187.792969 97.863281 184.726563 Z M 108.042969 242.273438 C 108.042969 246.621094 109.03125 247.609375 115.554688 247.90625 L 115.554688 249.984375 C 111.601563 249.6875 107.746094 249.390625 103.792969 249.390625 C 99.9375 249.390625 95.984375 249.6875 92.128906 249.984375 L 92.128906 247.90625 C 93.019531 247.90625 93.90625 247.808594 94.796875 247.710938 C 94.898438 247.710938 98.257813 247.511719 99.148438 245.632813 C 99.640625 244.84375 99.640625 243.953125 99.640625 242.273438 L 99.640625 209.058594 C 99.640625 206.390625 99.445313 205.105469 98.355469 204.117188 C 97.269531 203.128906 95.390625 203.03125 92.226563 203.03125 L 92.328125 201.152344 C 99.046875 200.65625 106.066406 198.878906 108.042969 198.386719 L 108.042969 242.273438 " id="path137"/>
        <path style=" stroke:none;fill-rule:nonzero;fill:rgb(13.730068%,12.159915%,12.54902%);fill-opacity:1;" d="M 149.855469 247.414063 C 147.878906 248.597656 145.011719 250.574219 139.476563 250.574219 C 138.390625 250.574219 135.226563 250.574219 132.359375 248.5 C 127.617188 245.039063 128.011719 238.320313 128.109375 233.378906 L 128.507813 204.019531 L 121.6875 204.019531 L 121.785156 200.855469 C 122.574219 200.757813 124.15625 200.757813 126.132813 199.867188 C 131.472656 197.296875 133.25 190.277344 134.339844 185.238281 L 136.90625 185.238281 L 136.90625 200.261719 L 149.066406 200.261719 L 149.066406 204.019531 L 136.808594 204.019531 L 136.808594 234.5625 C 136.808594 234.5625 136.808594 239.109375 137.203125 241.382813 C 137.5 242.765625 138.488281 246.523438 143.035156 246.523438 C 145.804688 246.523438 147.582031 245.535156 149.957031 244.347656 L 149.855469 247.414063 " id="path139"/>
        <path style=" stroke:none;fill-rule:nonzero;fill:rgb(13.730068%,12.159915%,12.54902%);fill-opacity:1;" d="M 183.070313 202.933594 L 171.40625 202.933594 C 168.933594 203.03125 166.660156 203.128906 164.585938 204.613281 C 162.410156 206.292969 161.226563 208.863281 159.246094 213.804688 L 157.074219 213.804688 L 159.445313 200.261719 L 194.238281 200.261719 L 165.769531 247.015625 L 178.128906 247.015625 C 178.523438 247.015625 180.597656 247.015625 182.082031 246.71875 C 186.332031 245.632813 188.308594 241.382813 188.804688 240.492188 C 189.394531 239.40625 189.988281 238.21875 190.382813 237.035156 L 191.273438 234.660156 L 193.351563 234.660156 L 190.679688 249.6875 L 154.699219 249.6875 L 183.070313 202.933594 " id="path141"/>
        <path style=" stroke:none;fill-rule:nonzero;fill:rgb(13.730068%,12.159915%,12.54902%);fill-opacity:1;" d="M 249.695313 240.492188 C 249.796875 242.570313 249.796875 243.65625 250.191406 244.546875 C 251.375 247.117188 256.21875 247.3125 258.394531 247.414063 L 258.394531 249.984375 C 254.046875 249.585938 249.695313 249.191406 245.246094 249.191406 C 240.898438 249.191406 236.550781 249.585938 232.199219 249.984375 L 232.300781 247.414063 C 234.375 247.3125 239.019531 247.015625 240.304688 244.84375 C 240.898438 243.855469 240.800781 242.667969 240.898438 240.492188 L 240.898438 183.0625 L 235.265625 183.0625 C 232.992188 183.164063 230.914063 183.261719 228.839844 184.347656 C 225.875 185.929688 224.195313 189.488281 222.316406 195.816406 L 219.746094 195.816406 L 222.613281 179.898438 L 268.378906 179.898438 L 271.246094 195.816406 L 268.773438 195.816406 C 267.390625 190.675781 266.007813 187.511719 264.425781 185.832031 C 261.558594 182.765625 257.40625 183.0625 256.320313 183.0625 L 249.695313 183.0625 L 249.695313 240.492188 " id="path143"/>
        <path style=" stroke:none;fill-rule:nonzero;fill:rgb(13.730068%,12.159915%,12.54902%);fill-opacity:1;" d="M 273.125 181.480469 C 275.003906 181.285156 282.316406 180.492188 288.84375 178.714844 L 288.941406 206.195313 C 289.238281 205.796875 289.828125 204.910156 290.917969 203.820313 C 293.980469 200.757813 297.9375 199.273438 302.285156 199.273438 C 306.929688 199.273438 311.378906 201.054688 314.246094 204.808594 C 317.210938 208.46875 317.40625 212.617188 317.507813 217.066406 L 317.507813 242.273438 C 317.507813 242.371094 317.507813 243.460938 317.605469 244.152344 C 317.902344 246.71875 319.976563 247.3125 320.867188 247.511719 C 321.660156 247.609375 323.140625 247.808594 325.019531 247.90625 L 325.019531 249.984375 C 321.066406 249.6875 317.210938 249.390625 313.257813 249.390625 C 309.597656 249.390625 305.84375 249.6875 302.1875 249.984375 L 302.1875 247.90625 C 304.0625 247.90625 307.425781 247.710938 308.609375 245.730469 C 309.105469 244.742188 309.105469 243.558594 309.105469 242.46875 L 309.105469 216.769531 C 309.105469 212.914063 309.105469 208.269531 305.546875 205.699219 C 303.273438 204.117188 300.605469 204.019531 299.714844 204.019531 C 298.429688 204.019531 295.957031 204.117188 293.390625 205.996094 C 289.335938 208.863281 288.941406 212.519531 288.84375 217.164063 L 288.84375 242.46875 C 288.84375 243.558594 288.84375 244.742188 289.433594 245.730469 C 290.523438 247.710938 293.785156 247.808594 295.660156 247.90625 L 295.660156 249.984375 C 292.003906 249.6875 288.347656 249.390625 284.691406 249.390625 C 280.734375 249.390625 276.882813 249.6875 273.027344 249.984375 L 273.027344 247.90625 C 276.683594 247.710938 278.957031 247.3125 279.945313 245.730469 C 280.539063 244.742188 280.539063 243.460938 280.539063 242.273438 L 280.539063 189.390625 C 280.539063 186.425781 280.242188 185.238281 278.957031 184.25 C 277.871094 183.460938 275.992188 183.261719 273.125 183.261719 L 273.125 181.480469 " id="path145"/>
        <path style=" stroke:none;fill-rule:nonzero;fill:rgb(13.730068%,12.159915%,12.54902%);fill-opacity:1;" d="M 332.039063 206.886719 C 332.039063 206.785156 331.445313 205.402344 330.953125 204.613281 C 329.371094 202.140625 326.800781 202.140625 324.132813 202.042969 L 324.132813 199.964844 C 327.691406 200.261719 331.25 200.460938 334.808594 200.460938 C 338.367188 200.460938 341.925781 200.261719 345.484375 199.964844 L 345.484375 202.042969 C 343.507813 202.140625 341.824219 202.339844 341.132813 202.734375 C 340.835938 202.832031 340.046875 203.328125 340.046875 204.414063 C 340.046875 204.910156 340.34375 205.898438 340.835938 207.082031 L 351.808594 237.230469 L 363.273438 207.28125 C 363.769531 205.996094 364.066406 205.203125 364.066406 204.414063 C 364.066406 203.625 363.570313 203.03125 363.375 202.933594 C 362.386719 202.140625 359.222656 202.042969 358.136719 202.042969 L 358.136719 199.964844 C 360.707031 200.164063 363.273438 200.363281 365.945313 200.363281 C 368.910156 200.363281 371.875 200.164063 374.839844 199.964844 L 374.839844 202.042969 C 374.148438 202.042969 370.195313 202.238281 368.117188 204.808594 C 367.722656 205.304688 367.425781 205.898438 366.933594 207.183594 L 347.164063 258.285156 C 346.074219 260.855469 344.988281 263.328125 343.109375 265.503906 C 339.15625 270.046875 334.015625 270.148438 332.039063 270.148438 L 330.457031 270.148438 L 330.558594 264.808594 C 332.140625 264.910156 337.378906 265.203125 341.035156 261.152344 C 342.417969 259.671875 343.40625 257.496094 344.296875 255.816406 L 347.558594 248.003906 L 332.039063 206.886719 " id="path147"/>
        <path style=" stroke:none;fill-rule:nonzero;fill:rgb(13.730068%,12.159915%,12.54902%);fill-opacity:1;" d="M 377.609375 233.378906 L 379.980469 233.378906 C 380.078125 234.167969 380.476563 236.835938 381.464844 239.210938 C 384.527344 246.425781 390.757813 247.511719 393.523438 247.511719 C 397.179688 247.511719 401.136719 245.832031 403.109375 242.570313 C 403.507813 241.878906 404.296875 240.195313 404.296875 237.921875 C 404.296875 235.847656 403.804688 233.671875 400.046875 231.300781 C 398.167969 230.113281 394.117188 228.433594 388.976563 226.0625 C 388.976563 226.0625 385.417969 224.480469 383.738281 223.394531 C 378.695313 220.03125 378.300781 215.683594 378.300781 213.3125 C 378.300781 210.542969 378.894531 208.765625 379.386719 207.773438 C 381.761719 202.042969 388.1875 199.273438 394.019531 199.273438 C 399.453125 199.273438 403.011719 201.449219 404.792969 202.636719 L 406.472656 198.386719 L 408.351563 198.386719 L 408.351563 214.597656 L 405.976563 214.597656 C 405.878906 213.902344 405.683594 210.839844 404.59375 208.46875 C 403.703125 206.390625 401.035156 202.238281 395.007813 202.238281 C 390.0625 202.238281 385.121094 205.503906 385.121094 210.9375 C 385.121094 211.53125 385.121094 212.914063 385.910156 214.300781 C 387.195313 216.375 389.371094 217.660156 393.722656 219.539063 C 395.304688 220.328125 396.882813 220.921875 398.464844 221.613281 C 400.046875 222.304688 401.726563 222.996094 403.210938 223.789063 C 408.351563 226.359375 411.414063 229.421875 411.414063 235.550781 C 411.414063 238.8125 410.328125 241.285156 409.832031 242.371094 C 408.152344 245.632813 403.703125 250.574219 394.511719 250.574219 C 387.890625 250.574219 384.035156 247.808594 381.957031 246.324219 L 379.488281 250.871094 L 377.609375 250.871094 L 377.609375 233.378906 " id="path149"/>
        <path style=" stroke:none;fill-rule:nonzero;fill:rgb(13.730068%,12.159915%,12.54902%);fill-opacity:1;" d="M 421.300781 233.378906 L 423.671875 233.378906 C 423.769531 234.167969 424.167969 236.835938 425.15625 239.210938 C 428.21875 246.425781 434.445313 247.511719 437.214844 247.511719 C 440.871094 247.511719 444.824219 245.832031 446.804688 242.570313 C 447.199219 241.878906 447.988281 240.195313 447.988281 237.921875 C 447.988281 235.847656 447.496094 233.671875 443.738281 231.300781 C 441.859375 230.113281 437.808594 228.433594 432.667969 226.0625 C 432.667969 226.0625 429.109375 224.480469 427.429688 223.394531 C 422.386719 220.03125 421.992188 215.683594 421.992188 213.3125 C 421.992188 210.542969 422.585938 208.765625 423.078125 207.773438 C 425.453125 202.042969 431.878906 199.273438 437.710938 199.273438 C 443.144531 199.273438 446.703125 201.449219 448.484375 202.636719 L 450.164063 198.386719 L 452.042969 198.386719 L 452.042969 214.597656 L 449.667969 214.597656 C 449.570313 213.902344 449.371094 210.839844 448.285156 208.46875 C 447.394531 206.390625 444.726563 202.238281 438.699219 202.238281 C 433.753906 202.238281 428.8125 205.503906 428.8125 210.9375 C 428.8125 211.53125 428.8125 212.914063 429.605469 214.300781 C 430.890625 216.375 433.0625 217.660156 437.414063 219.539063 C 438.992188 220.328125 440.574219 220.921875 442.15625 221.613281 C 443.738281 222.304688 445.417969 222.996094 446.902344 223.789063 C 452.042969 226.359375 455.105469 229.421875 455.105469 235.550781 C 455.105469 238.8125 454.019531 241.285156 453.523438 242.371094 C 451.84375 245.632813 447.394531 250.574219 438.203125 250.574219 C 431.582031 250.574219 427.726563 247.808594 425.648438 246.324219 L 423.179688 250.871094 L 421.300781 250.871094 L 421.300781 233.378906 " id="path151"/>
        <path style=" stroke:none;fill-rule:nonzero;fill:rgb(13.730068%,12.159915%,12.54902%);fill-opacity:1;" d="M 496.03125 219.933594 C 495.734375 215.878906 495.4375 211.433594 493.757813 207.773438 C 491.285156 202.535156 487.53125 201.648438 485.058594 201.648438 C 483.476563 201.648438 480.414063 202.140625 478.039063 205.105469 C 474.777344 209.160156 473.890625 215.089844 473.394531 219.933594 Z M 504.433594 233.671875 C 503.640625 240.492188 500.578125 244.546875 498.5 246.425781 C 493.855469 250.773438 488.519531 250.871094 486.34375 250.871094 C 478.238281 250.871094 474.183594 247.90625 471.613281 245.335938 C 468.058594 241.878906 464.792969 235.945313 464.792969 225.171875 C 464.792969 218.253906 466.179688 210.9375 470.824219 205.503906 C 474.582031 201.054688 479.523438 198.976563 485.257813 198.976563 C 494.152344 198.976563 498.699219 204.019531 500.578125 206.886719 C 502.457031 209.851563 504.433594 215.484375 504.332031 223.691406 L 473.195313 223.789063 C 473.195313 224.085938 472.898438 235.945313 476.753906 241.878906 C 480.117188 247.117188 484.761719 247.3125 487.035156 247.3125 C 488.320313 247.3125 491.382813 247.214844 494.25 245.238281 C 496.820313 243.460938 499.390625 240.296875 500.28125 233.671875 L 504.433594 233.671875 " id="path153"/>
        <path style=" stroke:none;fill-rule:nonzero;fill:rgb(13.730068%,12.159915%,12.54902%);fill-opacity:1;" d="M 511.550781 201.546875 C 518.570313 200.558594 522.425781 199.472656 525.390625 198.386719 C 525.882813 200.558594 526.179688 202.933594 526.476563 207.480469 C 527.859375 205.304688 528.847656 204.316406 529.738281 203.425781 C 531.417969 201.941406 534.878906 199.273438 540.710938 199.273438 C 545.355469 199.273438 549.804688 201.054688 552.769531 204.808594 C 555.636719 208.46875 555.835938 212.617188 556.03125 217.066406 L 556.03125 242.273438 C 556.03125 242.273438 555.933594 244.347656 556.328125 245.4375 C 557.121094 247.3125 559.691406 247.710938 563.445313 247.90625 L 563.445313 249.984375 C 559.589844 249.6875 555.636719 249.390625 551.683594 249.390625 C 548.027344 249.390625 544.367188 249.6875 540.710938 249.984375 L 540.710938 247.90625 C 542.589844 247.90625 545.949219 247.710938 547.039063 245.730469 C 547.433594 245.039063 547.628906 244.050781 547.628906 242.46875 L 547.628906 216.769531 C 547.628906 216.671875 547.628906 212.421875 547.039063 210.148438 C 545.355469 204.414063 540.117188 204.019531 538.238281 204.019531 C 536.953125 204.019531 534.484375 204.117188 531.816406 205.996094 C 527.761719 208.863281 527.367188 212.519531 527.367188 217.164063 L 527.367188 242.46875 C 527.367188 243.558594 527.269531 244.742188 527.859375 245.730469 C 529.046875 247.710938 532.308594 247.808594 534.089844 247.90625 L 534.089844 249.984375 C 530.429688 249.6875 526.773438 249.390625 523.117188 249.390625 C 519.261719 249.390625 515.308594 249.6875 511.453125 249.984375 L 511.453125 247.90625 C 515.109375 247.710938 517.480469 247.3125 518.371094 245.730469 C 518.964844 244.742188 518.964844 243.460938 518.964844 242.273438 L 518.964844 209.851563 C 518.867188 208.070313 518.964844 206.886719 518.765625 206.195313 C 518.273438 203.226563 515.902344 203.425781 511.550781 203.328125 L 511.550781 201.546875 " id="path155"/>
        <path style=" stroke:none;fill-rule:nonzero;fill:rgb(13.730068%,12.159915%,12.54902%);fill-opacity:1;" d="M 597.253906 228.632813 C 597.75 231.597656 598.242188 233.96875 599.527344 236.835938 C 601.109375 240.296875 605.460938 247.3125 615.738281 247.3125 C 616.726563 247.3125 619.199219 247.3125 621.671875 246.324219 C 627.007813 244.25 630.171875 239.210938 630.171875 233.574219 C 630.171875 231.203125 629.675781 229.027344 628.492188 227.050781 C 626.117188 223.195313 622.164063 221.414063 618.308594 219.4375 C 608.917969 214.597656 603.085938 211.925781 599.726563 208.269531 C 596.070313 204.21875 595.871094 198.976563 595.871094 197.296875 C 595.871094 193.144531 597.058594 190.476563 597.75 188.894531 C 602.394531 179.503906 612.972656 178.910156 615.839844 178.910156 C 623.449219 178.910156 627.207031 182.074219 629.480469 184.347656 L 632.640625 178.417969 L 634.519531 178.417969 L 634.519531 197.792969 L 632.050781 197.691406 C 631.457031 195.222656 629.183594 182.074219 616.726563 182.074219 C 615.839844 182.074219 613.863281 182.175781 611.6875 182.964844 C 606.84375 184.84375 603.484375 189.6875 603.484375 194.925781 C 603.484375 197.691406 604.371094 200.066406 606.25 201.941406 C 608.128906 203.921875 611.09375 205.601563 616.234375 208.269531 C 619.101563 209.652344 621.964844 211.136719 624.734375 212.519531 C 627.898438 214.199219 630.664063 215.683594 633.234375 218.351563 C 635.210938 220.425781 637.980469 223.886719 637.980469 230.609375 C 637.980469 231.992188 637.882813 235.355469 636.398438 238.910156 C 634.519531 243.261719 629.082031 250.574219 617.125 250.574219 C 612.179688 250.574219 607.535156 249.488281 603.484375 246.820313 C 602.691406 246.425781 601.902344 245.832031 600.515625 244.546875 L 596.660156 251.265625 L 594.785156 251.265625 L 594.785156 228.53125 L 597.253906 228.632813 " id="path157"/>
        <path style=" stroke:none;fill-rule:nonzero;fill:rgb(13.730068%,12.159915%,12.54902%);fill-opacity:1;" d="M 673.171875 247.414063 C 671.195313 248.597656 668.328125 250.574219 662.792969 250.574219 C 661.707031 250.574219 658.542969 250.574219 655.675781 248.5 C 650.929688 245.039063 651.328125 238.320313 651.425781 233.378906 L 651.820313 204.019531 L 645 204.019531 L 645.101563 200.855469 C 645.890625 200.757813 647.472656 200.757813 649.449219 199.867188 C 654.785156 197.296875 656.566406 190.277344 657.652344 185.238281 L 660.222656 185.238281 L 660.222656 200.261719 L 672.382813 200.261719 L 672.382813 204.019531 L 660.125 204.019531 L 660.125 234.5625 C 660.125 234.5625 660.125 239.109375 660.519531 241.382813 C 660.816406 242.765625 661.804688 246.523438 666.351563 246.523438 C 669.121094 246.523438 670.898438 245.535156 673.269531 244.347656 L 673.171875 247.414063 " id="path159"/>
        <path style=" stroke:none;fill-rule:nonzero;fill:rgb(13.730068%,12.159915%,12.54902%);fill-opacity:1;" d="M 693.535156 242.273438 C 693.535156 246.621094 694.523438 247.609375 701.046875 247.90625 L 701.046875 249.984375 C 697.09375 249.6875 693.238281 249.390625 689.285156 249.390625 C 685.429688 249.390625 681.476563 249.6875 677.621094 249.984375 L 677.621094 247.90625 C 678.511719 247.90625 679.398438 247.808594 680.289063 247.710938 C 680.386719 247.710938 683.75 247.511719 684.636719 245.632813 C 685.132813 244.84375 685.132813 243.953125 685.132813 242.273438 L 685.132813 209.058594 C 685.132813 206.390625 684.933594 205.105469 683.847656 204.117188 C 682.761719 203.128906 680.882813 203.03125 677.71875 203.03125 L 677.816406 201.152344 C 684.539063 200.65625 691.558594 198.878906 693.535156 198.386719 L 693.535156 242.273438 " id="path161"/>
        <path style=" stroke:none;fill-rule:nonzero;fill:rgb(13.730068%,12.159915%,12.54902%);fill-opacity:1;" d="M 734.953125 200.261719 L 734.953125 204.019531 L 722.894531 204.019531 L 722.894531 242.273438 C 722.894531 243.953125 722.992188 244.742188 723.289063 245.535156 C 724.179688 247.414063 726.648438 247.710938 730.40625 247.90625 L 730.40625 249.984375 C 726.453125 249.6875 722.597656 249.390625 718.644531 249.390625 C 714.789063 249.390625 710.835938 249.6875 706.980469 249.984375 L 707.078125 247.90625 C 710.636719 247.710938 713.007813 247.3125 713.898438 245.832031 C 714.394531 245.140625 714.492188 243.953125 714.492188 242.273438 L 714.492188 204.019531 L 707.277344 204.019531 L 707.277344 200.855469 C 711.328125 200.757813 713.800781 200.460938 714.589844 198.386719 C 714.984375 197.296875 715.085938 196.109375 715.183594 193.9375 C 715.382813 191.269531 715.578125 188.402344 716.566406 186.027344 C 719.53125 178.8125 727.539063 178.417969 729.515625 178.417969 C 730.503906 178.417969 733.074219 178.417969 735.644531 179.800781 C 738.015625 181.085938 739.796875 183.460938 739.796875 186.128906 C 739.796875 189.585938 737.324219 190.082031 735.941406 190.082031 C 732.875 190.082031 732.183594 187.90625 732.183594 186.917969 C 732.183594 186.425781 732.285156 186.027344 732.382813 185.535156 C 732.382813 185.039063 732.480469 184.546875 732.480469 183.953125 C 732.480469 182.175781 731 180.988281 729.21875 181.085938 C 728.527344 181.085938 727.144531 181.285156 725.761719 182.371094 C 722.695313 184.941406 722.992188 189.785156 722.894531 193.246094 L 722.894531 200.261719 L 734.953125 200.261719 " id="path163"/>
        <path style=" stroke:none;fill-rule:nonzero;fill:rgb(13.730068%,12.159915%,12.54902%);fill-opacity:1;" d="M 767.175781 247.414063 C 765.199219 248.597656 762.332031 250.574219 756.796875 250.574219 C 755.710938 250.574219 752.546875 250.574219 749.679688 248.5 C 744.9375 245.039063 745.332031 238.320313 745.429688 233.378906 L 745.824219 204.019531 L 739.003906 204.019531 L 739.105469 200.855469 C 739.894531 200.757813 741.476563 200.757813 743.453125 199.867188 C 748.792969 197.296875 750.570313 190.277344 751.65625 185.238281 L 754.226563 185.238281 L 754.226563 200.261719 L 766.386719 200.261719 L 766.386719 204.019531 L 754.128906 204.019531 L 754.128906 234.5625 C 754.128906 234.5625 754.128906 239.109375 754.523438 241.382813 C 754.820313 242.765625 755.808594 246.523438 760.355469 246.523438 C 763.125 246.523438 764.902344 245.535156 767.277344 244.347656 L 767.175781 247.414063 " id="path165"/>
        <path style=" stroke:none;fill-rule:nonzero;fill:rgb(13.730068%,12.159915%,12.54902%);fill-opacity:1;" d="M 770.140625 201.152344 C 774.984375 200.757813 781.3125 199.671875 785.957031 198.386719 L 785.957031 233.378906 C 785.957031 233.671875 785.859375 237.824219 786.75 240.394531 C 787.539063 242.667969 789.714844 245.832031 795.445313 245.832031 C 797.027344 245.832031 801.277344 245.730469 804.144531 241.582031 C 806.121094 238.714844 806.121094 235.253906 806.222656 231.894531 L 806.222656 209.058594 C 806.222656 207.773438 806.320313 205.699219 805.234375 204.414063 C 804.144531 203.03125 802.269531 203.03125 798.808594 203.03125 L 798.90625 201.152344 C 801.378906 200.953125 807.703125 200.261719 814.625 198.386719 L 814.625 240.988281 C 814.625 243.0625 814.523438 244.941406 816.898438 245.730469 C 817.785156 246.027344 819.863281 246.128906 822.332031 246.128906 L 822.332031 248.003906 C 819.367188 248.300781 814.722656 248.699219 808 250.773438 C 807.605469 247.609375 807.308594 244.347656 807.308594 241.285156 C 805.726563 244.152344 802.269531 250.574219 792.976563 250.574219 C 786.550781 250.574219 780.621094 247.609375 778.542969 241.183594 C 777.851563 238.910156 777.65625 237.429688 777.554688 233.179688 L 777.554688 207.28125 C 777.457031 206.488281 777.457031 204.21875 775.085938 203.425781 C 774.195313 203.128906 772.515625 203.03125 770.140625 203.03125 L 770.140625 201.152344 " id="path167"/>
        <path style=" stroke:none;fill-rule:nonzero;fill:rgb(13.730068%,12.159915%,12.54902%);fill-opacity:1;" d="M 827.871094 201.546875 C 834.890625 200.558594 838.746094 199.472656 841.710938 198.386719 C 842.203125 200.558594 842.5 202.933594 842.796875 207.480469 C 844.179688 205.304688 845.167969 204.316406 846.058594 203.425781 C 847.738281 201.941406 851.199219 199.273438 857.03125 199.273438 C 861.675781 199.273438 866.125 201.054688 869.089844 204.808594 C 871.957031 208.46875 872.15625 212.617188 872.351563 217.066406 L 872.351563 242.273438 C 872.351563 242.273438 872.253906 244.347656 872.648438 245.4375 C 873.441406 247.3125 876.011719 247.710938 879.765625 247.90625 L 879.765625 249.984375 C 875.910156 249.6875 871.957031 249.390625 868.003906 249.390625 C 864.347656 249.390625 860.6875 249.6875 857.03125 249.984375 L 857.03125 247.90625 C 858.910156 247.90625 862.269531 247.710938 863.359375 245.730469 C 863.753906 245.039063 863.949219 244.050781 863.949219 242.46875 L 863.949219 216.769531 C 863.949219 216.671875 863.949219 212.421875 863.359375 210.148438 C 861.675781 204.414063 856.4375 204.019531 854.558594 204.019531 C 853.273438 204.019531 850.804688 204.117188 848.136719 205.996094 C 844.082031 208.863281 843.6875 212.519531 843.6875 217.164063 L 843.6875 242.46875 C 843.6875 243.558594 843.589844 244.742188 844.179688 245.730469 C 845.367188 247.710938 848.628906 247.808594 850.410156 247.90625 L 850.410156 249.984375 C 846.75 249.6875 843.09375 249.390625 839.4375 249.390625 C 835.582031 249.390625 831.628906 249.6875 827.773438 249.984375 L 827.773438 247.90625 C 831.429688 247.710938 833.800781 247.3125 834.691406 245.730469 C 835.285156 244.742188 835.285156 243.460938 835.285156 242.273438 L 835.285156 209.851563 C 835.1875 208.070313 835.285156 206.886719 835.085938 206.195313 C 834.59375 203.226563 832.222656 203.425781 827.871094 203.328125 L 827.871094 201.546875 " id="path169"/>
        <path style=" stroke:none;fill-rule:nonzero;fill:rgb(13.730068%,12.159915%,12.54902%);fill-opacity:1;" d="M 904.972656 228.136719 C 905.960938 228.136719 908.136719 228.039063 910.3125 226.457031 C 912.78125 224.679688 914.761719 221.21875 914.761719 214.792969 C 914.761719 213.3125 914.5625 211.234375 914.464844 210.9375 C 914.167969 208.765625 912.78125 201.941406 905.074219 201.941406 C 900.625 201.941406 898.253906 204.414063 897.265625 205.898438 C 895.582031 208.367188 894.992188 212.222656 894.992188 214.992188 C 894.890625 224.875 900.230469 228.136719 904.972656 228.136719 Z M 912.488281 266.195313 C 913.871094 265.898438 921.480469 264.019531 921.480469 256.902344 C 921.382813 255.023438 920.789063 253.640625 920.394531 253.144531 C 918.320313 249.882813 912.488281 247.90625 903.886719 247.90625 C 893.707031 247.90625 887.578125 251.070313 887.578125 256.804688 C 887.578125 257.792969 887.773438 259.769531 889.355469 261.644531 C 893.902344 267.183594 904.382813 267.183594 905.171875 267.183594 C 906.359375 267.183594 909.226563 267.085938 912.488281 266.195313 Z M 930.179688 202.042969 L 930.179688 206.292969 L 920.195313 205.996094 C 920.492188 206.390625 920.691406 206.785156 920.988281 207.183594 C 922.667969 210.246094 922.765625 213.605469 922.765625 214.792969 C 922.765625 217.164063 922.46875 222.109375 917.625 226.257813 C 913.96875 229.324219 910.214844 230.214844 905.765625 231.300781 C 903.886719 231.796875 902.109375 232.191406 900.328125 232.683594 C 899.140625 233.078125 898.054688 233.378906 896.867188 233.773438 C 896.574219 233.96875 894.003906 234.761719 894.003906 237.035156 C 894.003906 237.527344 894.296875 238.613281 895.386719 239.210938 C 896.867188 240 900.425781 240.195313 904.675781 240.492188 C 907.742188 240.691406 910.90625 240.890625 914.066406 241.480469 C 915.550781 241.679688 921.878906 242.570313 925.632813 247.3125 C 926.425781 248.402344 927.90625 250.773438 927.90625 254.332031 C 927.90625 256.804688 926.917969 262.339844 921.285156 266.195313 C 915.351563 270.34375 906.65625 270.445313 905.074219 270.445313 C 903.789063 270.445313 891.136719 270.542969 885.601563 263.128906 C 884.910156 262.140625 883.226563 259.570313 883.226563 255.914063 C 883.328125 247.710938 891.730469 245.335938 893.308594 244.742188 C 892.71875 244.445313 892.023438 244.152344 891.332031 243.855469 C 890.445313 243.359375 887.875 241.976563 887.875 238.613281 C 887.875 237.628906 888.171875 235.75 889.851563 234.167969 C 892.914063 231.5 898.648438 230.3125 899.042969 230.214844 C 897.460938 229.71875 894.296875 228.730469 891.234375 225.667969 C 889.554688 223.886719 887.082031 220.921875 887.082031 215.089844 C 887.082031 213.507813 887.183594 209.457031 890.046875 205.601563 C 890.839844 204.511719 891.628906 203.722656 892.023438 203.425781 C 896.769531 199.371094 904.085938 199.273438 905.46875 199.273438 C 911.101563 199.273438 914.167969 200.757813 916.242188 202.042969 L 930.179688 202.042969 " id="path171"/>
        <path style=" stroke:none;fill-rule:nonzero;fill:rgb(85.691615%,10.997177%,18.947127%);fill-opacity:1;" d="M 683.347656 184.722656 C 683.347656 181.558594 685.617188 178.886719 688.976563 178.988281 C 692.144531 178.988281 694.511719 181.660156 694.511719 184.722656 C 694.511719 187.984375 692.242188 190.550781 688.886719 190.550781 C 685.71875 190.550781 683.347656 187.785156 683.347656 184.722656 " id="path173"/>
    </g>
</svg>