<?xml version="1.0" encoding="UTF-8" standalone="no"?>
<svg xmlns:dc="http://purl.org/dc/elements/1.1/" xmlns:cc="http://creativecommons.org/ns#" xmlns:rdf="http://www.w3.org/1999/02/22-rdf-syntax-ns#" xmlns:svg="http://www.w3.org/2000/svg" xmlns="http://www.w3.org/2000/svg" xmlns:sodipodi="http://sodipodi.sourceforge.net/DTD/sodipodi-0.dtd" xmlns:inkscape="http://www.inkscape.org/namespaces/inkscape" x="0px" y="0px" viewBox="0 0 122.66796 63.507814" preserveAspectRatio="xMinYMin meet" version="1.1" id="svg3583" inkscape:version="0.91 r13725" sodipodi:docname="JGU-Logo_farbe_med.svg">
   <sodipodi:namedview pagecolor="#ffffff" bordercolor="#666666" borderopacity="1" objecttolerance="10" gridtolerance="10" guidetolerance="10" inkscape:pageopacity="0" inkscape:pageshadow="2" inkscape:window-width="1868" inkscape:window-height="1007" id="namedview3609" showgrid="false" fit-margin-top="0" fit-margin-left="0" fit-margin-right="0" fit-margin-bottom="0" inkscape:zoom="5.6346119" inkscape:cx="84.014914" inkscape:cy="45.311992" inkscape:window-x="0" inkscape:window-y="0" inkscape:window-maximized="0" inkscape:current-layer="svg3583"/>
  <defs id="defs3585">
    <clipPath id="clip1">
      <path d="m 0,0 184.25391,0 0,125.36719 -184.25391,0 z" id="path3588" inkscape:connector-curvature="0"/>
    </clipPath>
  </defs>
  <g id="surface51410" transform="translate(-24.914069,-35.425781)">
    <g clip-path="url(#clip1)" id="g3591" style="clip-rule:nonzero">
      <path style="fill:#6e6e6e;fill-opacity:1;fill-rule:nonzero;stroke:none" d="m 61.339844,81.726563 c -0.355469,-0.128907 -0.761719,-0.1875 -1.105469,-0.1875 -0.933594,0 -1.660156,0.492187 -1.660156,1.410156 0,1.609375 2.222656,1.289062 2.222656,2.449219 0,0.609375 -0.59375,0.84375 -1.015625,0.84375 -0.378906,0 -0.824219,-0.148438 -1.074219,-0.25 l -0.07422,0.6875 c 0.339843,0.113281 0.695312,0.214843 1.058593,0.214843 1.039063,0 1.894532,-0.433593 1.894532,-1.542968 0,-1.707032 -2.226563,-1.476563 -2.226563,-2.46875 0,-0.542969 0.488281,-0.691407 0.90625,-0.691407 0.382813,0 0.59375,0.06641 0.96875,0.21875 z m -6.542969,5.078125 2.902344,0 0,-0.652344 -2.160156,0 0,-1.703125 1.964843,0 0,-0.65625 -1.964843,0 0,-1.511719 2.160156,0 0,-0.652344 -2.902344,0 z m -5.550781,0 0.742187,0 0,-4.257813 0.01563,0 2.34375,4.257813 0.949219,0 0,-5.175782 -0.742187,0 0,4.167969 -0.01172,0 -2.285156,-4.167969 -1.011719,0 z m -5.355469,0 0.742188,0 0,-4.257813 0.01563,0 2.34375,4.257813 0.949218,0 0,-5.175782 -0.742187,0 0,4.167969 -0.01563,0 -2.285156,-4.167969 -1.007813,0 z M 41.875,84.894531 l -2.0625,0 1.027344,-2.566406 z m -3.609375,1.910157 0.78125,0 0.527344,-1.304688 2.535156,0 0.527344,1.304688 0.808594,0 -2.1875,-5.175782 -0.777344,0 z m -4.300781,0 0.742187,0 0,-2.355469 2.476563,0 0,2.355469 0.742187,0 0,-5.175782 -0.742187,0 0,2.164063 -2.476563,0 0,-2.164063 -0.742187,0 z m -6,-2.585938 c 0,1.574219 0.910156,2.675781 2.492187,2.675781 1.578125,0 2.492188,-1.101562 2.492188,-2.675781 0,-1.535156 -0.921875,-2.679687 -2.492188,-2.679687 -1.574218,0 -2.492187,1.144531 -2.492187,2.679687 m 0.785156,0 c 0,-1.054687 0.5625,-2.035156 1.707031,-2.027344 1.140625,-0.0078 1.707032,0.972657 1.707032,2.027344 0,1.027344 -0.515625,2.023438 -1.707032,2.023438 -1.195312,0 -1.707031,-0.996094 -1.707031,-2.023438 m -3.835937,2.585938 c 0.15625,0.0625 0.363281,0.08984 0.601562,0.08984 1.121094,0 1.453125,-0.695312 1.453125,-1.425781 l 0,-3.839844 -0.742187,0 0,3.605469 c 0,0.628906 -0.175782,1.007813 -0.84375,1.007813 -0.140625,0 -0.304688,-0.01563 -0.46875,-0.07422 z" id="path3593" inkscape:connector-curvature="0"/>
      <path style="fill:#6e6e6e;fill-opacity:1;fill-rule:nonzero;stroke:none" d="m 143.99609,95.117188 3.58594,0 0,-0.652344 -2.72656,0 2.67969,-3.859375 0,-0.671875 -3.44922,0 0,0.65625 2.59765,0 -2.6875,3.855469 z m -4.86328,0 0.74219,0 0,-4.261719 0.0117,0 2.34375,4.261719 0.95312,0 0,-5.183594 -0.74609,0 0,4.171875 -0.0117,0 -2.28516,-4.171875 -1.00781,0 z m -2.28125,0 0.74219,0 0,-5.183594 -0.74219,0 z m -2.05859,-1.914063 -2.0625,0 1.03125,-2.570312 z m -3.60938,1.914063 0.78125,0 0.52344,-1.308594 2.53906,0 0.52735,1.308594 0.80859,0 -2.1875,-5.183594 -0.77734,0 z m -6.125,0 0.74219,0 0,-4.484375 0.0117,0 1.71484,4.484375 0.73047,0 1.71094,-4.484375 0.0117,0 0,4.484375 0.74609,0 0,-5.183594 -1.22265,0 -1.59766,4.304687 -1.625,-4.304687 -1.22266,0 z" id="path3595" inkscape:connector-curvature="0"/>
      <path style="fill:#6e6e6e;fill-opacity:1;fill-rule:nonzero;stroke:none" d="m 118.02344,98.78125 1.26953,0 0,-7.734375 2.75391,0 0,-1.117187 -6.77344,0 0,1.117187 2.75,0 z m -4.08203,-3.273437 -3.52344,0 1.76172,-4.386719 z m -6.16407,3.273437 1.33204,0 0.90234,-2.230469 4.33594,0 0.90234,2.230469 1.37891,0 -3.73828,-8.851562 -1.33204,0 z m 4.8711,-9.589844 1.1914,0 0,-1.265625 -1.1914,0 z m -2.07813,0 1.19141,0 0,-1.265625 -1.19141,0 z m -5.45703,9.589844 1.26953,0 0,-7.734375 2.75391,0 0,-1.117187 -6.77344,0 0,1.117187 2.75,0 z m -5.160155,0 1.269535,0 0,-8.851562 -1.269535,0 z m -2.398437,-8.6875 C 96.949219,89.878906 96.25,89.777344 95.667969,89.777344 c -1.597656,0 -2.839844,0.835937 -2.839844,2.410156 0,2.75 3.800781,2.207031 3.800781,4.1875 0,1.035156 -1.011718,1.445313 -1.734375,1.445313 -0.648437,0 -1.40625,-0.253907 -1.839843,-0.433594 l -0.128907,1.179687 c 0.585938,0.191407 1.195313,0.367188 1.816407,0.367188 1.777343,0 3.234375,-0.75 3.234375,-2.636719 0,-2.917969 -3.804688,-2.523437 -3.804688,-4.222656 0,-0.925781 0.835938,-1.183594 1.546875,-1.183594 0.660156,0 1.011719,0.117188 1.660156,0.371094 z m -11.132813,0.953125 1.21875,0 c 1.164063,0 1.773438,0.507813 1.773438,1.304688 0,0.851562 -0.707032,1.382812 -1.914063,1.382812 l -1.078125,0 z m -1.265625,7.734375 1.265625,0 0,-3.929687 0.761719,0 c 0.671875,0 1.089844,0 1.484375,0.859375 l 1.355469,3.070312 1.445312,0 -1.671875,-3.523437 c -0.28125,-0.546875 -0.46875,-0.738282 -0.863281,-0.886719 l 0,-0.02734 c 1.027344,-0.175781 1.828125,-0.9375 1.828125,-2.015625 0,-2.121094 -1.6875,-2.398437 -3.4375,-2.398437 l -2.167969,0 z m -7.292969,0 4.957032,0 0,-1.117187 -3.6875,0 0,-2.914063 3.359375,0 0,-1.117187 -3.359375,0 0,-2.585938 3.6875,0 0,-1.117187 -4.957032,0 z m -1.140625,-8.851562 -1.332031,0 -2.804687,7.734375 -0.02344,0 -2.726562,-7.734375 -1.421875,0 3.335937,8.851562 1.585938,0 z m -10.652343,8.851562 1.265625,0 0,-8.851562 -1.265625,0 z m -9.425782,0 1.269532,0 0,-7.277344 0.02734,0 4.007813,7.277344 1.621094,0 0,-8.851562 -1.269532,0 0,7.128906 -0.02344,0 -3.90625,-7.128906 -1.726563,0 z m -2.382812,-8.851562 -1.265625,0 0,5.023437 c 0,1.699219 -0.535156,2.867188 -2.167969,2.867188 -1.636719,0 -2.171875,-1.167969 -2.171875,-2.867188 l 0,-5.023437 -1.265625,0 0,5.1875 c 0,2.484375 1.253906,3.816406 3.4375,3.816406 2.179688,0 3.433594,-1.332031 3.433594,-3.816406 z" id="path3597" inkscape:connector-curvature="0"/>
      <path style="fill:#6e6e6e;fill-opacity:1;fill-rule:nonzero;stroke:none" d="m 137.12891,78.210938 c -0.73829,-0.253907 -1.3086,-0.441407 -2.60157,-0.441407 -2.70312,0 -4.67968,1.8125 -4.67968,4.539063 0,2.816406 1.86328,4.617187 4.66796,4.617187 1.38282,0 2.21485,-0.230468 2.69922,-0.394531 l 0,-4.601562 -3.13281,0 0,1.039062 1.86719,0 0,2.6875 c -0.32031,0.0625 -0.54688,0.152344 -1.42188,0.152344 -1.83984,0 -3.33593,-1.382813 -3.33593,-3.460938 0,-1.980468 1.35546,-3.464843 3.39843,-3.464843 1.14063,0 1.8125,0.203125 2.4336,0.609375 z m -13.25782,0.824218 1.22266,0 c 1.16406,0 1.77344,0.507813 1.77344,1.308594 0,0.847656 -0.71094,1.382813 -1.91406,1.382813 l -1.08204,0 z m -1.26562,7.738282 1.26562,0 0,-3.933594 0.76563,0 c 0.67187,0 1.08984,0 1.48047,0.863281 l 1.35937,3.070313 1.44531,0 -1.67578,-3.527344 c -0.27734,-0.542969 -0.46875,-0.734375 -0.85937,-0.886719 l 0,-0.02734 c 1.02734,-0.175781 1.82422,-0.933593 1.82422,-2.015625 0,-2.117187 -1.6836,-2.394531 -3.4375,-2.394531 l -2.16797,0 z m -7.16406,0 4.95703,0 0,-1.117188 -3.6875,0 0,-2.914062 3.35547,0 0,-1.117188 -3.35547,0 0,-2.589844 3.6875,0 0,-1.113281 -4.95703,0 z m -6.9375,-7.8125 1.33203,0 c 0.73437,0 1.63672,0.265625 1.63672,1.316406 0,1.308594 -1.03907,1.421875 -2.26953,1.421875 l -0.69922,0 z m 0,3.78125 0.82422,0 c 1.08984,0 2.29296,0.1875 2.29296,1.554687 0,1.195313 -1.02343,1.4375 -2.16406,1.4375 l -0.95312,0 z m -1.26953,4.03125 2.35937,0 c 1.80469,0 3.375,-0.457032 3.375,-2.359375 0,-1.242188 -0.85156,-2.03125 -2.05469,-2.128907 l 0,-0.02734 c 1.11719,-0.277344 1.82422,-0.886719 1.82422,-2.105469 0,-1.632813 -1.26562,-2.230469 -3.10547,-2.230469 l -2.39843,0 z m -9.851567,0 1.269531,0 0,-7.28125 0.02344,0 4.007806,7.28125 1.625,0 0,-8.851563 -1.26953,0 0,7.128906 -0.0234,0 -3.910158,-7.128906 -1.722656,0 z m -7.355469,0 4.957031,0 0,-1.117188 -3.6875,0 0,-2.914062 3.359375,0 0,-1.117188 -3.359375,0 0,-2.589844 3.6875,0 0,-1.113281 -4.957031,0 z m -5.097656,0 1.269531,0 0,-7.738282 2.75,0 0,-1.113281 -6.773438,0 0,1.113281 2.753907,0 z m -3.652344,-8.851563 -1.265625,0 0,5.019531 c 0,1.699219 -0.535156,2.867188 -2.171875,2.867188 -1.632813,0 -2.167969,-1.167969 -2.167969,-2.867188 l 0,-5.019531 -1.269531,0 0,5.183594 c 0,2.488281 1.257812,3.820312 3.4375,3.820312 2.183594,0 3.4375,-1.332031 3.4375,-3.820312 z m -9.21875,0.289063 c -0.734375,-0.253907 -1.304688,-0.441407 -2.597656,-0.441407 -2.703125,0 -4.683594,1.8125 -4.683594,4.539063 0,2.816406 1.867187,4.617187 4.667969,4.617187 1.382812,0 2.21875,-0.230468 2.703125,-0.394531 l 0,-4.601562 -3.132813,0 0,1.039062 1.863281,0 0,2.6875 c -0.316406,0.0625 -0.542968,0.152344 -1.417968,0.152344 -1.84375,0 -3.335938,-1.382813 -3.335938,-3.460938 0,-1.980468 1.355469,-3.464843 3.398438,-3.464843 1.140625,0 1.8125,0.203125 2.433593,0.609375 z" id="path3599" inkscape:connector-curvature="0"/>
      <path style="fill:#bf0028;fill-opacity:1;fill-rule:nonzero;stroke:none" d="m 77.949219,70.859375 35.437501,0 0,-35.433594 -35.437501,0 z" id="path3601" inkscape:connector-curvature="0"/>
      <path style="fill:#ffffff;fill-opacity:1;fill-rule:nonzero;stroke:none" d="m 95.707031,54.925781 c 0,-0.679687 0.167969,-0.757812 0.796875,-0.757812 l 0.15625,0 c 0.06641,0 0.08984,-0.15625 0.08984,-0.289063 0,-0.0625 0.01563,-0.167968 -0.07813,-0.167968 l -3.773437,0 c -0.117188,0 -0.132813,0.128906 -0.132813,0.300781 0,0.128906 0.02734,0.207031 0.08984,0.207031 l 0.96875,0 c 0.550781,0 0.890625,0.195313 0.890625,0.847656 l 0,0.902344 c 0,0.796875 -0.796875,1.476563 -2.339844,1.476563 -2.039062,0 -3.75,-2.011719 -3.75,-4.296875 0,-3.136719 2.417969,-4.269532 3.957031,-4.269532 1.726563,0 2.523438,0.988282 2.691407,1.984375 0.01563,0.05078 0.07813,0.05078 0.15625,0.05078 0.06641,0 0.277343,-0.03906 0.277343,-0.117188 0,-0.574219 -0.06641,-1.605469 -0.09375,-1.710937 -0.78125,-0.40625 -1.695312,-0.71875 -2.910156,-0.71875 -1.503906,0 -5.542969,0.785156 -5.542969,5.015625 0,1.984375 1.660157,4.574218 5.410157,4.574218 0.601562,0 2.128906,-0.183593 3.136718,-0.8125 z m -12.046875,2.441407 c 0,1.265625 -0.07813,2.875 -0.730468,2.875 -0.378907,0 -0.484375,-0.289063 -0.585938,-0.574219 -0.105469,-0.277344 -0.222656,-0.5625 -0.65625,-0.5625 -0.351562,0 -0.714844,0.285156 -0.652344,0.664062 0.117188,0.707032 0.8125,0.984375 1.464844,0.984375 1.75,0 2.335938,-1.804687 2.335938,-3.292968 l 0,-7.785157 c 0,-0.605468 0.40625,-0.65625 0.929687,-0.695312 l 0.351563,-0.02344 0.05078,-0.07813 0,-0.265625 -0.0625,-0.0625 c -0.523438,0 -1.308594,0.0625 -1.960938,0.0625 -0.886718,0 -1.304687,-0.0625 -1.660156,-0.0625 -0.07813,0 -0.195312,0.01172 -0.207031,0.15625 l 0,0.210938 0.06641,0.0625 c 1.09375,0 1.316406,0.183594 1.316406,0.925781 z" id="path3603" inkscape:connector-curvature="0"/>
      <path style="fill:#ffffff;fill-opacity:1;fill-rule:nonzero;stroke:none" d="m 109.70703,48.542969 -1.33203,0 0,5.273437 c 0,1.785157 -0.55859,3.007813 -2.27734,3.007813 -1.71485,0 -2.27344,-1.222656 -2.27344,-3.007813 l 0,-5.273437 -1.33594,0 0,5.445312 c 0,2.609375 1.32031,4.007813 3.60938,4.007813 2.29297,0 3.60937,-1.398438 3.60937,-4.007813 z" id="path3605" inkscape:connector-curvature="0"/>
      <path style="fill:#ffffff;fill-opacity:1;fill-rule:nonzero;stroke:none" d="m 99.207031,63.972656 0.707032,0 0,-21.988281 -0.707032,0 z" id="path3607" inkscape:connector-curvature="0"/>
    </g>
  </g>
</svg>